<?xml version="1.0" encoding="UTF-8" standalone="no"?>
<!-- Created with Inkscape (http://www.inkscape.org/) -->

<svg
   width="297mm"
   height="210mm"
   viewBox="0 0 297 210"
   version="1.1"
   id="svg1"
   xml:space="preserve"
   inkscape:version="1.3 (0e150ed6c4, 2023-07-21)"
   sodipodi:docname="keys.svg"
   inkscape:export-filename="keys.png"
   inkscape:export-xdpi="96"
   inkscape:export-ydpi="96"
   xmlns:inkscape="http://www.inkscape.org/namespaces/inkscape"
   xmlns:sodipodi="http://sodipodi.sourceforge.net/DTD/sodipodi-0.dtd"
   xmlns:xlink="http://www.w3.org/1999/xlink"
   xmlns="http://www.w3.org/2000/svg"
   xmlns:svg="http://www.w3.org/2000/svg"><sodipodi:namedview
     id="namedview1"
     pagecolor="#bebebe"
     bordercolor="#ffffff"
     borderopacity="1"
     inkscape:showpageshadow="0"
     inkscape:pageopacity="0"
     inkscape:pagecheckerboard="false"
     inkscape:deskcolor="#303030"
     inkscape:document-units="mm"
     inkscape:zoom="1.0392083"
     inkscape:cx="570.6267"
     inkscape:cy="344.97415"
     inkscape:window-width="1920"
     inkscape:window-height="1011"
     inkscape:window-x="0"
     inkscape:window-y="0"
     inkscape:window-maximized="1"
     inkscape:current-layer="layer1"
     inkscape:export-bgcolor="#858585ff" /><defs
     id="defs1"><marker
       style="overflow:visible"
       id="marker85"
       refX="0"
       refY="0"
       orient="auto-start-reverse"
       inkscape:stockid="Triangle arrow"
       markerWidth="1"
       markerHeight="1"
       viewBox="0 0 1 1"
       inkscape:isstock="true"
       inkscape:collect="always"
       preserveAspectRatio="xMidYMid"><path
         transform="scale(0.5)"
         style="fill:context-stroke;fill-rule:evenodd;stroke:context-stroke;stroke-width:1pt"
         d="M 5.77,0 -2.88,5 V -5 Z"
         id="path85" /></marker><rect
       x="-858.47571"
       y="2537.5161"
       width="731.57874"
       height="205.31125"
       id="rect70" /><marker
       style="overflow:visible"
       id="Triangle"
       refX="0"
       refY="0"
       orient="auto-start-reverse"
       inkscape:stockid="Triangle arrow"
       markerWidth="1"
       markerHeight="1"
       viewBox="0 0 1 1"
       inkscape:isstock="true"
       inkscape:collect="always"
       preserveAspectRatio="xMidYMid"><path
         transform="scale(0.5)"
         style="fill:context-stroke;fill-rule:evenodd;stroke:context-stroke;stroke-width:1pt"
         d="M 5.77,0 -2.88,5 V -5 Z"
         id="path135" /></marker></defs><g
     inkscape:label="图层 1"
     inkscape:groupmode="layer"
     id="layer1"><text
       xml:space="preserve"
       transform="scale(0.26458333)"
       id="text70"
       style="font-style:normal;font-variant:normal;font-weight:normal;font-stretch:normal;font-size:53.3333px;font-family:'Noto Naskh Arabic';-inkscape-font-specification:'Noto Naskh Arabic';white-space:pre;shape-inside:url(#rect70);display:inline;fill:none;fill-opacity:0.452954;stroke:#9a9a9a;stroke-width:18.8976;stroke-linecap:round;stroke-linejoin:round;stroke-dasharray:56.6929, 56.6929;stroke-dashoffset:0" /><g
       id="g145"
       transform="translate(0,-15.875)"><path
         style="fill:#000000;stroke-width:0.518038"
         d="m 23.639785,114.62504 c 0,-2.90051 0.287382,-4.06629 1.270713,-5.15472 0.817066,-0.9044 1.193065,-1.10869 4.001829,-2.17432 1.189881,-0.45144 2.244868,-0.90224 2.344416,-1.00178 0.363879,-0.36388 0.197396,-1.63591 -0.300585,-2.29668 -0.835457,-1.10857 -1.132861,-2.31496 -1.158111,-4.69772 -0.02611,-2.462525 0.230558,-3.213193 1.470931,-4.302256 1.57204,-1.380268 4.512538,-1.325635 6.027247,0.111979 1.119926,1.062928 1.353669,1.800264 1.328342,4.190277 -0.02512,2.37052 -0.322802,3.58916 -1.142553,4.67733 -0.42322,0.56179 -0.531232,1.02386 -0.462884,1.98012 0.02663,0.37228 0.35936,0.54003 3.307219,1.66726 2.328431,0.89036 3.351962,1.66636 3.959545,3.00192 0.318354,0.69979 0.399822,1.34021 0.462277,3.63396 0.07581,2.78446 0.07581,2.78446 -10.516287,2.78446 -10.592099,0 -10.592099,0 -10.592099,-2.41983 z m 19.632829,-0.88983 c 0,-3.09935 -0.416546,-3.59608 -4.283757,-5.10831 -2.314473,-0.90504 -2.791829,-1.16087 -3.095573,-1.65899 -0.19752,-0.32392 -0.359443,-0.72949 -0.359831,-0.90127 -4.85e-4,-0.26155 -0.215498,-0.31097 -1.322146,-0.30404 -1.042152,0.007 -1.32144,0.0678 -1.32144,0.29004 0,0.15496 -0.173733,0.56287 -0.386082,0.90646 -0.333651,0.53986 -0.752276,0.76788 -3.082743,1.67918 -3.847561,1.50454 -4.271041,2.01173 -4.271041,5.11528 0,1.7811 0,1.7811 9.061306,1.7811 9.061307,0 9.061307,0 9.061307,-1.79945 z m -7.731775,-9.76315 c 0.346636,-0.23361 0.847657,-0.84706 1.11338,-1.36321 0.439541,-0.85377 0.483133,-1.14335 0.483133,-3.209208 0,-1.972777 -0.04952,-2.33852 -0.377549,-2.787152 -0.47789,-0.653622 -1.721951,-1.27699 -2.548496,-1.27699 -0.826545,0 -2.070606,0.623368 -2.548493,1.27699 -0.328011,0.448632 -0.377554,0.814375 -0.377554,2.787152 0,2.065858 0.04362,2.355438 0.483135,3.209208 0.581918,1.13033 1.480442,1.78795 2.442912,1.78795 0.412584,0 0.957672,-0.17413 1.329532,-0.42474 z"
         id="path34"
         sodipodi:nodetypes="ssssssssssssssssssscsssssssssssssssss" /><g
         id="g36"
         style="fill:#f1e3e3;fill-opacity:1;stroke:#ffffff;stroke-opacity:1"
         transform="matrix(0.12857593,0,0,0.12857593,9.5081954,75.764033)"><path
           style="fill:#f1e3e3;fill-opacity:1;stroke:#ffffff;stroke-width:10;stroke-linecap:round;stroke-linejoin:round;stroke-dasharray:none;stroke-opacity:1"
           d="m 180.6952,196.0771 22.0787,-22.0787"
           id="path35" /><path
           style="fill:#f1e3e3;fill-opacity:1;stroke:#ffffff;stroke-width:10;stroke-linecap:round;stroke-linejoin:round;stroke-dasharray:none;stroke-opacity:1"
           d="m 180.6952,173.9984 22.0787,22.0787"
           id="path36" /></g><path
         style="fill:#4d6dc5;fill-opacity:0.733396;stroke-width:0.518038"
         d="m 43.260968,113.83225 c 0,-3.09935 -0.416546,-3.59608 -4.283757,-5.1083 -2.314473,-0.90505 -2.791829,-1.16088 -3.095573,-1.659 -0.19752,-0.32392 -0.359442,-0.72949 -0.359831,-0.90126 -4.85e-4,-0.26156 -0.215498,-0.31098 -1.322146,-0.30405 -1.042152,0.007 -1.321439,0.0678 -1.321439,0.29004 0,0.15497 -0.173734,0.56288 -0.386082,0.90646 -0.333652,0.53986 -0.752277,0.76789 -3.082744,1.67918 -3.847561,1.50455 -4.271041,2.01174 -4.271041,5.11529 0,1.78109 0,1.78109 9.061306,1.78109 9.061307,0 9.061307,0 9.061307,-1.79945 z"
         id="path41"
         sodipodi:nodetypes="ssscsssssss" /></g><g
       id="g141"
       transform="translate(0,-15.875)"><path
         id="path2"
         style="fill:#003d80;fill-opacity:0.452954;stroke:#000000;stroke-width:0.61224;stroke-linecap:round;stroke-linejoin:round;stroke-dasharray:none;stroke-opacity:1"
         d="m 56.076453,108.78057 v 2.93978 h 2.62282 l 0.405097,-0.49236 0.405098,0.49236 h 0.744894 l 0.405097,-0.49236 h 0.518363 l 0.405097,0.49236 h 1.587234 l 0.405097,-0.49236 0.405098,0.49236 h 1.198461 l 0.405098,-0.49236 0.405097,0.49236 h 1.05514 l 0.465969,-0.64751 0.695032,-0.96586 v -0.30733 l -0.579109,-0.57924 -0.43971,-0.43984 z"
         sodipodi:nodetypes="cccccccccccccccccccccc" /><path
         id="path3"
         style="fill:#141764;fill-opacity:0.5;stroke:#000000;stroke-width:0.61224;stroke-linejoin:round;stroke-dasharray:none;stroke-opacity:1"
         d="m 54.002179,106.4813 c -0.639015,0.003 -0.08801,0.017 -1.909564,0.002 -2.15278,0 -3.897977,1.74519 -3.897974,3.89797 -3e-6,2.15278 1.745194,3.89797 3.897974,3.89797 2.42735,-0.0315 0.186856,0 2.623641,0 0.744328,0 1.343555,-0.59922 1.343555,-1.34355 v -5.10884 c 0,-0.74432 -0.599227,-1.34355 -1.343555,-1.34355 -0.609408,-0.003 -0.501071,-0.003 -0.714077,-0.002 z"
         sodipodi:nodetypes="ccccssscc" /><path
         style="fill:#ff2a2a;fill-opacity:0.452954;stroke:#000000;stroke-width:0.122448;stroke-linecap:round;stroke-linejoin:round;stroke-dasharray:none;stroke-opacity:1"
         d="M 56.291672,109.95629 H 68.290708"
         id="path4"
         sodipodi:nodetypes="cc" /><g
         id="g6"
         style="fill:#f1e3e3;fill-opacity:1;stroke:#ffffff;stroke-opacity:1"
         transform="matrix(0.12244793,0,0,0.12244793,28.713254,87.722562)"><path
           style="fill:#f1e3e3;fill-opacity:1;stroke:#ffffff;stroke-width:10;stroke-linecap:round;stroke-linejoin:round;stroke-dasharray:none;stroke-opacity:1"
           d="m 180.6952,196.0771 22.0787,-22.0787"
           id="path5" /><path
           style="fill:#f1e3e3;fill-opacity:1;stroke:#ffffff;stroke-width:10;stroke-linecap:round;stroke-linejoin:round;stroke-dasharray:none;stroke-opacity:1"
           d="m 180.6952,173.9984 22.0787,22.0787"
           id="path6" /></g></g><g
       id="g140"
       transform="translate(0,-15.875)"><g
         id="g9"
         transform="matrix(0.12244793,0,0,0.12244793,45.942971,82.803151)"><path
           id="path7"
           style="fill:#008000;fill-opacity:0.452954;stroke:#000000;stroke-width:5;stroke-linecap:round;stroke-linejoin:round;stroke-dasharray:none;stroke-opacity:1"
           d="m 82.75748,132.77577 v 24.00836 h 21.41988 l 3.30832,-4.02094 3.30833,4.02094 h 6.08335 l 3.30832,-4.02094 h 4.23334 l 3.30832,4.02094 h 12.96252 l 3.30832,-4.02094 3.30833,4.02094 h 9.78751 l 3.30833,-4.02094 3.30832,4.02094 h 8.61705 l 3.80545,-5.28805 5.67614,-7.88789 v -2.50993 l -4.72943,-4.73046 -3.59099,-3.59203 z"
           sodipodi:nodetypes="cccccccccccccccccccccc" /><path
           id="path8"
           style="fill:#ff8080;fill-opacity:0.452954;stroke:#000000;stroke-width:5;stroke-linejoin:round;stroke-dasharray:none;stroke-opacity:1"
           d="m 65.81743,113.99824 c -5.21867,0.0247 -0.71877,0.1388 -15.59491,0.0171 -17.581182,-10e-6 -31.833745,14.25253 -31.833725,31.83372 -2e-5,17.58118 14.252543,31.83372 31.833725,31.83371 19.82353,-0.25715 1.52601,0 21.42659,0 6.078727,0 10.972457,-4.89373 10.972457,-10.97246 V 124.9878 c 0,-6.07872 -4.89373,-10.97246 -10.972457,-10.97246 -4.97688,-0.0237 -4.09212,-0.0253 -5.83168,-0.0171 z m -21.39611,14.12265 v 35.43453 c -8.016412,-2.15448 -13.592542,-9.4164 -13.604342,-17.71727 0.0118,-8.30086 5.58794,-15.56279 13.604342,-17.71726 z"
           sodipodi:nodetypes="ccccssscccccc" /><path
           style="fill:#ff2a2a;fill-opacity:0.452954;stroke:#000000;stroke-width:1;stroke-linecap:round;stroke-linejoin:round;stroke-dasharray:none;stroke-opacity:1"
           d="M 84.515113,142.3775 H 182.50808"
           id="path9"
           sodipodi:nodetypes="cc" /></g><g
         id="g23"
         style="fill:#f1e3e3;fill-opacity:1;stroke:#ffffff;stroke-opacity:1"
         transform="matrix(0.08612622,0,0,0.08612622,37.213909,84.724144)"><path
           style="fill:#f1e3e3;fill-opacity:1;stroke:#ffffff;stroke-width:10;stroke-linecap:round;stroke-linejoin:round;stroke-dasharray:none;stroke-opacity:1"
           d="m 180.6952,196.0771 22.0787,-22.0787"
           id="path16" /><path
           style="fill:#f1e3e3;fill-opacity:1;stroke:#ffffff;stroke-width:10;stroke-linecap:round;stroke-linejoin:round;stroke-dasharray:none;stroke-opacity:1"
           d="m 180.6952,173.9984 22.0787,22.0787"
           id="path23" /></g></g><g
       id="g144"
       transform="translate(0,-15.875)"><circle
         style="fill:none;fill-opacity:1;stroke:#ffffff;stroke-width:1.11177;stroke-linecap:round;stroke-linejoin:round;stroke-dasharray:none;stroke-opacity:1"
         id="circle37"
         cx="258.53366"
         cy="99.555435"
         r="1.5063912" /><path
         style="fill:#000000;stroke-width:0.518038"
         d="m 247.9738,114.62504 c 0,-2.90051 0.28739,-4.06629 1.27072,-5.15472 0.81706,-0.9044 1.19306,-1.10869 4.00183,-2.17432 1.18988,-0.45144 2.24486,-0.90224 2.34441,-1.00178 0.36388,-0.36388 0.1974,-1.63591 -0.30058,-2.29668 -0.83546,-1.10857 -1.13286,-2.31496 -1.15811,-4.69772 -0.0261,-2.462525 0.23055,-3.213193 1.47093,-4.302256 1.57204,-1.380268 4.51253,-1.325635 6.02724,0.111979 1.11993,1.062928 1.35367,1.800264 1.32835,4.190277 -0.0251,2.37052 -0.32281,3.58916 -1.14256,4.67733 -0.42322,0.56179 -0.53123,1.02386 -0.46288,1.98012 0.0266,0.37228 0.35936,0.54003 3.30722,1.66726 2.32843,0.89036 3.35196,1.66636 3.95954,3.00192 0.31836,0.69979 0.39982,1.34021 0.46228,3.63396 0.0758,2.78446 0.0758,2.78446 -10.51629,2.78446 -10.5921,0 -10.5921,0 -10.5921,-2.41983 z m 19.63283,-0.88983 c 0,-3.09935 -0.41654,-3.59608 -4.28375,-5.10831 -2.31448,-0.90504 -2.79183,-1.16087 -3.09558,-1.65899 -0.19752,-0.32392 -0.35944,-0.72949 -0.35983,-0.90127 -4.8e-4,-0.26155 -0.2155,-0.31097 -1.32214,-0.30404 -1.04216,0.007 -1.32144,0.0678 -1.32144,0.29004 0,0.15496 -0.17374,0.56287 -0.38609,0.90646 -0.33365,0.53986 -0.75227,0.76788 -3.08274,1.67918 -3.84756,1.50454 -4.27104,2.01173 -4.27104,5.11528 0,1.7811 0,1.7811 9.06131,1.7811 9.0613,0 9.0613,0 9.0613,-1.79945 z m -7.73177,-9.76315 c 0.34663,-0.23361 0.84766,-0.84706 1.11338,-1.36321 0.43954,-0.85377 0.48313,-1.14335 0.48313,-3.209208 0,-1.972777 -0.0495,-2.33852 -0.37755,-2.787152 -0.47789,-0.653622 -1.72195,-1.27699 -2.54849,-1.27699 -0.82655,0 -2.07061,0.623368 -2.5485,1.27699 -0.32801,0.448632 -0.37755,0.814375 -0.37755,2.787152 0,2.065858 0.0436,2.355438 0.48313,3.209208 0.58192,1.13033 1.48045,1.78795 2.44292,1.78795 0.41258,0 0.95767,-0.17413 1.32953,-0.42474 z"
         id="path38"
         sodipodi:nodetypes="ssssssssssssssssssscsssssssssssssssss" /><path
         style="fill:#ff8181;fill-opacity:0.45098;stroke-width:0.518038"
         d="m 267.59499,113.62288 c 0,-3.09935 -0.41655,-3.59608 -4.28376,-5.10831 -2.31447,-0.90504 -2.79183,-1.16087 -3.09557,-1.65899 -0.19752,-0.32392 -0.35945,-0.72949 -0.35983,-0.90127 -4.9e-4,-0.26155 -0.2155,-0.31097 -1.32215,-0.30404 -1.04215,0.007 -1.32144,0.0678 -1.32144,0.29004 0,0.15497 -0.17373,0.56287 -0.38608,0.90646 -0.33365,0.53986 -0.75228,0.76788 -3.08275,1.67918 -3.84756,1.50454 -4.27104,2.01173 -4.27104,5.11529 0,1.78109 0,1.78109 9.06131,1.78109 9.06131,0 9.06131,0 9.06131,-1.79945 z"
         id="path42"
         sodipodi:nodetypes="ssscsssssss" /></g><g
       id="g143"
       transform="translate(0,-15.875)"><path
         id="path24"
         style="fill:#003d80;fill-opacity:0.452954;stroke:#000000;stroke-width:0.61224;stroke-linecap:round;stroke-linejoin:round;stroke-dasharray:none;stroke-opacity:1"
         d="m 236.65689,108.78058 v 2.93977 h -2.62282 l -0.4051,-0.49236 h -2.07345 l -0.4051,0.49236 h -2.88314 l -0.4051,-0.49236 h -0.71275 l -0.40509,0.49236 h -1.05514 l -0.46597,-0.64751 -0.69504,-0.96586 v -0.30733 l 0.57911,-0.57924 0.43971,-0.43983 z"
         sodipodi:nodetypes="ccccccccccccccccc" /><path
         id="path26"
         style="fill:#141764;fill-opacity:0.5;stroke:#000000;stroke-width:0.61224;stroke-linejoin:round;stroke-dasharray:none;stroke-opacity:1"
         d="m 238.73116,106.48131 c 0.63902,0.003 0.088,0.017 1.90957,0.002 2.15278,0 3.89797,1.74519 3.89797,3.89797 0,2.15278 -1.74519,3.89798 -3.89797,3.89798 -2.42735,-0.0315 -0.18686,0 -2.62365,0 -0.74432,0 -1.34355,-0.59923 -1.34355,-1.34356 v -5.10884 c 0,-0.74432 0.59923,-1.34355 1.34355,-1.34355 0.60941,-0.003 0.50108,-0.003 0.71408,-0.002 z"
         sodipodi:nodetypes="ccccssscc" /><path
         style="fill:#ff2a2a;fill-opacity:0.452954;stroke:#000000;stroke-width:0.122448;stroke-linecap:round;stroke-linejoin:round;stroke-dasharray:none;stroke-opacity:1"
         d="M 236.44167,109.95629 H 224.44263"
         id="path27"
         sodipodi:nodetypes="cc" /><circle
         style="fill:none;fill-opacity:1;stroke:#ffffff;stroke-width:1.22448;stroke-linecap:round;stroke-linejoin:round;stroke-dasharray:none;stroke-opacity:1"
         id="circle27"
         cx="240.75015"
         cy="110.38005"
         r="1.6591135" /></g><g
       id="g142"
       transform="translate(0,-15.875)"><path
         id="path33"
         style="fill:#ff8080;fill-opacity:0.452954;stroke:#000000;stroke-width:0.61224;stroke-linejoin:round;stroke-dasharray:none;stroke-opacity:1"
         d="m 238.73117,96.761998 c 0.63901,0.003 0.088,0.017 1.90956,0.0021 2.15278,-10e-7 3.89798,1.745193 3.89797,3.897982 1e-5,2.15277 -1.74519,3.89797 -3.89797,3.89797 -2.42735,-0.0315 -0.18686,0 -2.62364,0 -0.74433,0 -1.34356,-0.59923 -1.34356,-1.34356 v -5.108837 c 0,-0.744326 0.59923,-1.343555 1.34356,-1.343555 0.60941,-0.0029 0.50107,-0.0031 0.71408,-0.0021 z m 2.61991,1.72929 v 4.338882 c 0.98159,-0.26381 1.66437,-1.15302 1.66582,-2.16944 -0.001,-1.016424 -0.68423,-1.905632 -1.66582,-2.169442 z"
         sodipodi:nodetypes="ccccssscccccc" /><path
         style="fill:#ff2a2a;fill-opacity:0.452954;stroke:#000000;stroke-width:0.122448;stroke-linecap:round;stroke-linejoin:round;stroke-dasharray:none;stroke-opacity:1"
         d="M 236.44167,100.23698 H 224.44264"
         id="path37"
         sodipodi:nodetypes="cc" /><path
         id="path43"
         style="fill:#008000;fill-opacity:0.452954;stroke:#000000;stroke-width:0.61224;stroke-linecap:round;stroke-linejoin:round;stroke-dasharray:none;stroke-opacity:1"
         d="m 236.65689,99.12608 v 2.93977 h -2.62282 l -0.4051,-0.49235 h -2.07345 l -0.4051,0.49235 h -2.88314 l -0.40509,-0.49235 h -0.71275 l -0.4051,0.49235 h -1.05514 l -0.46597,-0.64751 -0.69503,-0.96585 v -0.30734 l 0.57911,-0.579234 0.43971,-0.439836 z"
         sodipodi:nodetypes="ccccccccccccccccc" /><circle
         style="fill:none;fill-opacity:1;stroke:#ffffff;stroke-width:0.817617;stroke-linecap:round;stroke-linejoin:round;stroke-dasharray:none;stroke-opacity:1"
         id="circle43"
         cx="239.13008"
         cy="100.66074"
         r="1.1078336" /></g><path
       style="fill:#e6e6e6;stroke:#666666;stroke-width:1.5;stroke-dasharray:none;stroke-opacity:1"
       d="m 168.12712,52.20847 c 3.1084,-2.886072 4.10207,-7.189885 3.23981,-10.567118 -0.89012,-3.486278 -3.41742,-5.538333 -4.35179,-6.196058 -0.50887,-0.358205 -0.29465,-1.747635 -1.76947,-3.982694 -1.38708,-2.102091 -3.59241,-3.687482 -5.9777,-4.297313 -1.70985,-0.439341 -3.48586,-0.38936 -5.19139,0.02229 -3.12891,-3.443298 -6.64673,-4.976253 -11.31113,-4.977168 -1.76425,0.07891 -3.07358,0.388893 -4.72437,1.11848 -2.43783,1.077431 -4.38455,2.739519 -5.9562,5.085357 -2.70826,4.042293 -1.47074,6.69239 -2.65483,6.859965 -5.56571,0.787738 -9.20035,7.208415 -8.34767,11.589199 0.68001,3.152351 3.35041,6.81084 7.34255,7.738083 0.30363,0.07052 2.39612,0.07985 17.60093,0.07841 l 17.25633,-0.0016 c 1.98088,-0.399849 3.29709,-1.056754 4.84494,-2.469812 z"
       id="path46"
       sodipodi:nodetypes="csssscsssscssccc" /><path
       id="path51"
       style="fill:#666666;fill-opacity:1;stroke:none;stroke-width:0.415682;stroke-linecap:round;stroke-linejoin:round;stroke-dasharray:none;stroke-opacity:1"
       d="m 136.0387,39.878858 c -1.46163,-2e-6 -2.64654,1.184908 -2.64654,2.646545 0.0214,1.648058 0,0.126871 0,1.781332 0,0.505365 0.40685,0.912212 0.91221,0.912212 h 3.46867 c 0.50536,0 0.91221,-0.406847 0.91221,-0.912212 0.002,-0.413759 0.002,-0.340204 0.001,-0.484826 -0.002,-0.433859 -0.0115,-0.05976 -0.001,-1.296506 0,-1.461637 -1.18491,-2.646547 -2.64655,-2.646545 z m 9e-4,1.033237 c 0.69011,0.0011 1.29384,0.464561 1.47296,1.131017 h -2.94591 c 0.17912,-0.666456 0.78285,-1.130036 1.47295,-1.131017 z m -0.91001,4.318153 v 1.780774 l 0.33428,0.275042 -0.33428,0.275044 v 0.505748 l 0.33428,0.275042 v 0.351946 l -0.33428,0.275042 v 1.077658 l 0.33428,0.275044 -0.33428,0.275042 v 0.813699 l 0.33428,0.275043 -0.33428,0.275043 v 0.716391 l 0.43962,0.316372 0.65578,0.471895 h 0.20866 l 0.39328,-0.393188 0.29863,-0.298543 v -7.543094 z" /><path
       id="path59"
       style="fill:#666666;fill-opacity:1;stroke:none;stroke-width:0.415682;stroke-linecap:round;stroke-linejoin:round;stroke-dasharray:none;stroke-opacity:1"
       d="m 149.80812,39.878858 c -1.46163,-2e-6 -2.64654,1.184908 -2.64654,2.646545 0.0214,1.648058 0,0.126871 0,1.781332 0,0.505365 0.40685,0.912214 0.91221,0.912214 h 3.46867 c 0.50536,0 0.91221,-0.406849 0.91221,-0.912214 0.002,-0.413759 0.002,-0.340204 0.002,-0.484826 -0.002,-0.433859 -0.0115,-0.05976 -0.002,-1.296506 0,-1.461637 -1.1849,-2.646547 -2.64655,-2.646545 z m 9.1e-4,1.033237 c 0.6901,0.0011 1.29383,0.464561 1.47295,1.131017 h -2.94591 c 0.17912,-0.666456 0.78285,-1.130036 1.47296,-1.131017 z m -0.91002,4.318153 v 1.780774 l 0.33428,0.275042 -0.33428,0.275044 v 0.505748 l 0.33428,0.275042 v 0.351946 l -0.33428,0.275042 v 1.077658 l 0.33428,0.275044 -0.33428,0.275042 v 0.813699 l 0.33428,0.275043 -0.33428,0.275043 v 0.716391 l 0.43962,0.316372 0.65578,0.471895 h 0.20866 l 0.39328,-0.393188 0.29863,-0.298543 v -7.543094 z" /><path
       id="path61"
       style="fill:#666666;fill-opacity:1;stroke:none;stroke-width:0.415683;stroke-linejoin:round;stroke-dasharray:none;stroke-opacity:1"
       d="m 156.69286,39.878846 c -1.46164,-3e-6 -2.64655,1.184909 -2.64655,2.646549 0.0214,1.648062 0,0.12687 0,1.781336 0,0.505366 0.40685,0.912215 0.91221,0.912215 h 3.46867 c 0.50537,0 0.91222,-0.406849 0.91222,-0.912215 0.002,-0.41376 0.002,-0.340205 0.001,-0.484826 -0.002,-0.433863 -0.0115,-0.05976 -0.001,-1.29651 0,-1.46164 -1.18491,-2.646552 -2.64655,-2.646549 z m 9e-4,1.033237 c 0.6901,0.0011 1.29384,0.464564 1.47296,1.13102 h -2.94592 c 0.17912,-0.666458 0.78285,-1.130039 1.47296,-1.13102 z m -0.95402,4.318162 v 1.780778 l 0.33429,0.275043 v 1.407781 l -0.33429,0.275044 v 1.957523 l 0.33429,0.275044 v 0.483925 l -0.33429,0.275044 v 0.716393 l 0.43964,0.316372 0.65577,0.471895 h 0.20867 l 0.39327,-0.393188 0.29863,-0.298543 v -7.543111 z" /><path
       id="path63"
       style="fill:#666666;fill-opacity:1;stroke:none;stroke-width:0.415683;stroke-linejoin:round;stroke-dasharray:none;stroke-opacity:1"
       d="m 142.92344,39.878846 c -1.46164,-3e-6 -2.64656,1.184909 -2.64655,2.646549 0.0214,1.648062 0,0.12687 0,1.781336 0,0.505366 0.40684,0.912215 0.91221,0.912215 h 3.46867 c 0.50537,0 0.91221,-0.406849 0.91221,-0.912215 0.002,-0.41376 0.002,-0.340205 0.001,-0.484826 -0.002,-0.433863 -0.0115,-0.05976 -0.001,-1.29651 1e-5,-1.46164 -1.1849,-2.646552 -2.64654,-2.646549 z m 9e-4,1.033237 c 0.6901,0.0011 1.29384,0.464564 1.47295,1.13102 h -2.94591 c 0.17912,-0.666458 0.78285,-1.130039 1.47296,-1.13102 z m -0.95402,4.318162 v 1.780778 l 0.33429,0.275043 v 1.407781 l -0.33429,0.275044 v 1.957523 l 0.33429,0.275044 v 0.483925 l -0.33429,0.275044 v 0.716393 l 0.43963,0.316372 0.65578,0.471895 h 0.20866 l 0.39328,-0.393188 0.29863,-0.298543 v -7.543111 z" /><path
       style="fill:none;fill-opacity:0.452954;stroke:#ffffff;stroke-width:1.21311;stroke-linecap:round;stroke-linejoin:round;stroke-dasharray:3.6393, 3.6393;stroke-dashoffset:0;stroke-opacity:1;marker-start:url(#marker85)"
       d="m 179.22915,42.467908 c 0,0 19.69093,-0.0031 33.72504,7.959459 14.0341,7.963007 21.66309,24.586537 21.66309,24.586537"
       id="path69" /><path
       style="fill:none;fill-opacity:0.452954;stroke:#ffffff;stroke-width:1.21311;stroke-linecap:round;stroke-linejoin:round;stroke-dasharray:3.6393, 3.6393;stroke-dashoffset:0;stroke-opacity:1;marker-start:url(#Triangle)"
       d="m 77.490849,102.55947 c 0,0 19.88956,1.40701 39.000401,-10.5996 19.11084,-12.006613 27.74604,-32.249223 27.74604,-32.249223"
       id="path72"
       sodipodi:nodetypes="czc" /><text
       xml:space="preserve"
       style="font-style:normal;font-variant:normal;font-weight:normal;font-stretch:normal;font-size:5.64444px;font-family:'Noto Naskh Arabic';-inkscape-font-specification:'Noto Naskh Arabic';fill:#1f7223;fill-opacity:1;stroke:none;stroke-width:4.99999;stroke-linecap:round;stroke-linejoin:round;stroke-dasharray:15, 15;stroke-dashoffset:0;stroke-opacity:1"
       id="text82"
       transform="translate(-2.1574958,-2.093541)"><textPath
         xlink:href="#path72"
         id="textPath140"><tspan
           id="tspan82"
           style="font-style:normal;font-variant:normal;font-weight:normal;font-stretch:normal;font-size:5.64444px;font-family:'Noto Naskh Arabic';-inkscape-font-specification:'Noto Naskh Arabic';fill:#1f7223;fill-opacity:1;stroke:none;stroke-width:5;stroke-opacity:1">             从服务器获取对方公钥</tspan></textPath></text><text
       xml:space="preserve"
       style="font-style:normal;font-variant:normal;font-weight:normal;font-stretch:normal;font-size:5.64444px;font-family:'Noto Naskh Arabic';-inkscape-font-specification:'Noto Naskh Arabic';fill:#1f7223;fill-opacity:1;stroke:none;stroke-width:4.99999;stroke-linecap:round;stroke-linejoin:round;stroke-dasharray:15, 15;stroke-dashoffset:0;stroke-opacity:1"
       id="text84"
       transform="translate(4.0031252,-2.893656)"><textPath
         xlink:href="#path69"
         id="textPath85"><tspan
           id="tspan84"
           style="font-style:normal;font-variant:normal;font-weight:normal;font-stretch:normal;font-size:5.64444px;font-family:'Noto Naskh Arabic';-inkscape-font-specification:'Noto Naskh Arabic';fill:#1f7223;fill-opacity:1;stroke:none;stroke-width:5;stroke-opacity:1">将自己的公钥上传到服务器</tspan></textPath></text><g
       id="g87"
       transform="matrix(0.36393078,0,0,0.36393078,138.27612,-150.82187)"><rect
         style="fill:#c7b9b9;fill-opacity:0.45098;stroke:#2d2d2d;stroke-width:6.22651;stroke-linecap:round;stroke-linejoin:round;stroke-dasharray:none;stroke-opacity:1"
         id="rect44"
         width="93.773491"
         height="118.40463"
         x="-333.49112"
         y="746.09625" /><text
         xml:space="preserve"
         style="font-style:normal;font-variant:normal;font-weight:normal;font-stretch:normal;font-size:25.4px;font-family:'Noto Naskh Arabic';-inkscape-font-specification:'Noto Naskh Arabic';fill:#ffffff;fill-opacity:0.936119;stroke:none;stroke-width:4.99999;stroke-linecap:round;stroke-linejoin:round;stroke-dasharray:15, 15;stroke-dashoffset:0"
         x="-311.96628"
         y="787.97906"
         id="text86"><tspan
           sodipodi:role="line"
           id="tspan86"
           style="font-size:25.4px;fill:#ffffff;fill-opacity:0.936119;stroke-width:5"
           x="-311.96628"
           y="787.97906">打死</tspan><tspan
           sodipodi:role="line"
           style="font-size:25.4px;fill:#ffffff;fill-opacity:0.936119;stroke-width:5"
           x="-311.96628"
           y="826.13708"
           id="tspan87">小强</tspan></text></g><g
       id="g89"
       transform="matrix(0.36393078,0,0,0.36393078,367.33218,-150.82187)"><rect
         style="fill:#c7b9b9;fill-opacity:0.45098;stroke:#2d2d2d;stroke-width:6.22651;stroke-linecap:round;stroke-linejoin:round;stroke-dasharray:none;stroke-opacity:1"
         id="rect87"
         width="93.773491"
         height="118.40463"
         x="-333.49112"
         y="746.09625" /><text
         xml:space="preserve"
         style="font-style:normal;font-variant:normal;font-weight:normal;font-stretch:normal;font-size:25.4px;font-family:'Noto Naskh Arabic';-inkscape-font-specification:'Noto Naskh Arabic';fill:#ffffff;fill-opacity:0.936119;stroke:none;stroke-width:4.99999;stroke-linecap:round;stroke-linejoin:round;stroke-dasharray:15, 15;stroke-dashoffset:0"
         x="-311.96628"
         y="787.97906"
         id="text89"><tspan
           sodipodi:role="line"
           id="tspan88"
           style="font-size:25.4px;fill:#ffffff;fill-opacity:0.936119;stroke-width:5"
           x="-311.96628"
           y="787.97906">打死</tspan><tspan
           sodipodi:role="line"
           style="font-size:25.4px;fill:#ffffff;fill-opacity:0.936119;stroke-width:5"
           x="-311.96628"
           y="826.13708"
           id="tspan89">小强</tspan></text></g><g
       id="g137"
       transform="matrix(0.36393078,0,0,0.36393078,175.69811,-143.79539)"><rect
         style="fill:#ff8181;fill-opacity:0.45098;stroke:#2d2d2d;stroke-width:6.22651;stroke-linecap:round;stroke-linejoin:round;stroke-dasharray:none;stroke-opacity:1"
         id="rect43"
         width="93.773491"
         height="118.40463"
         x="-121.62105"
         y="726.78906" /><text
         xml:space="preserve"
         style="font-style:normal;font-variant:normal;font-weight:normal;font-stretch:normal;font-size:6.35px;font-family:'Noto Naskh Arabic';-inkscape-font-specification:'Noto Naskh Arabic';fill:#ffffff;fill-opacity:0.936119;stroke:none;stroke-width:4.99999;stroke-linecap:round;stroke-linejoin:round;stroke-dasharray:none;stroke-dashoffset:0;stroke-opacity:1"
         x="-117.13325"
         y="740.74158"
         id="text93"><tspan
           sodipodi:role="line"
           style="font-size:6.35px;stroke:none;stroke-width:5"
           x="-117.13325"
           y="740.74158"
           id="tspan97">-----BEGIN PGP MESSAGE-----</tspan><tspan
           sodipodi:role="line"
           style="font-size:6.35px;stroke:none;stroke-width:5"
           x="-117.13325"
           y="749.67706"
           id="tspan99">hQGMA8oLwfdpIZj0AQv+IdC</tspan><tspan
           sodipodi:role="line"
           style="font-size:6.35px;stroke:none;stroke-width:5"
           x="-117.13325"
           y="758.61249"
           id="tspan114">P1LRT4INW69Di8dykb/l+A6E</tspan><tspan
           sodipodi:role="line"
           style="font-size:6.35px;stroke:none;stroke-width:5"
           x="-117.13325"
           y="767.54797"
           id="tspan115">BH6J3Fpe9EJiATEa9</tspan><tspan
           sodipodi:role="line"
           style="font-size:6.35px;stroke:none;stroke-width:5"
           x="-117.13325"
           y="776.4834"
           id="tspan100">jkStifLgFn8x40+IygugWeAXH</tspan><tspan
           sodipodi:role="line"
           style="font-size:6.35px;stroke:none;stroke-width:5"
           x="-117.13325"
           y="785.41888"
           id="tspan116">vCmreEzoTRsoW6G2FDSEmC</tspan><tspan
           sodipodi:role="line"
           style="font-size:6.35px;stroke:none;stroke-width:5"
           x="-117.13325"
           y="794.35437"
           id="tspan117">9ADKvDKaRHSs490fe</tspan><tspan
           sodipodi:role="line"
           style="font-size:6.35px;stroke:none;stroke-width:5"
           x="-117.13325"
           y="803.28979"
           id="tspan108">ZDWw0kIBkfr9DcIn4GXZ20S</tspan><tspan
           sodipodi:role="line"
           style="font-size:6.35px;stroke:none;stroke-width:5"
           x="-117.13325"
           y="812.22528"
           id="tspan125">9FizhYDX0lzFtgm8oxIl3LSy/2</tspan><tspan
           sodipodi:role="line"
           style="font-size:6.35px;stroke:none;stroke-width:5"
           x="-117.13325"
           y="821.16071"
           id="tspan109">Uusk+XqGQDY==j65x</tspan><tspan
           sodipodi:role="line"
           style="font-size:6.35px;stroke:none;stroke-width:5"
           x="-117.13325"
           y="830.09619"
           id="tspan110">-----END PGP MESSAGE-----</tspan><tspan
           sodipodi:role="line"
           style="font-size:6.35px;stroke:none;stroke-width:5"
           x="-117.13325"
           y="838.03369"
           id="tspan111" /></text></g><path
       style="fill:#8f0d8b;fill-opacity:1;stroke:#8f0d8b;stroke-width:2.42621;stroke-linecap:round;stroke-linejoin:round;stroke-dasharray:none;stroke-dashoffset:0;stroke-opacity:1;marker-end:url(#Triangle)"
       d="M 54.050158,151.45736 H 121.01928"
       id="path89" /><text
       xml:space="preserve"
       style="font-style:normal;font-variant:normal;font-weight:normal;font-stretch:normal;font-size:6.16256px;font-family:'Noto Naskh Arabic';-inkscape-font-specification:'Noto Naskh Arabic';fill:#a02c2c;fill-opacity:0.452954;stroke:#9a9a9a;stroke-width:1.2131;stroke-linecap:round;stroke-linejoin:round;stroke-dasharray:3.63931, 3.63931;stroke-dashoffset:0"
       id="text136"
       x="63.553772"
       y="130.81584"><tspan
         id="tspan136"
         style="font-style:normal;font-variant:normal;font-weight:normal;font-stretch:normal;font-size:6.16256px;font-family:'Noto Naskh Arabic';-inkscape-font-specification:'Noto Naskh Arabic';fill:#a02c2c;fill-opacity:0.936119;stroke:none;stroke-width:1.2131">用对方公钥加密文件</tspan></text><path
       style="fill:#1f7223;fill-opacity:1;stroke:#1f7223;stroke-width:2.42621;stroke-linecap:round;stroke-linejoin:round;stroke-dasharray:none;stroke-dashoffset:0;stroke-opacity:1;marker-end:url(#Triangle)"
       d="m 168.57819,151.45736 h 66.96912"
       id="path90" /><text
       xml:space="preserve"
       style="font-style:normal;font-variant:normal;font-weight:normal;font-stretch:normal;font-size:6.16256px;font-family:'Noto Naskh Arabic';-inkscape-font-specification:'Noto Naskh Arabic';fill:#a02c2c;fill-opacity:0.452954;stroke:#9a9a9a;stroke-width:1.2131;stroke-linecap:round;stroke-linejoin:round;stroke-dasharray:3.63931, 3.63931;stroke-dashoffset:0"
       id="text137"
       x="175.00052"
       y="130.81584"><tspan
         id="tspan137"
         style="font-style:normal;font-variant:normal;font-weight:normal;font-stretch:normal;font-size:6.16256px;font-family:'Noto Naskh Arabic';-inkscape-font-specification:'Noto Naskh Arabic';fill:#a02c2c;fill-opacity:0.936119;stroke:none;stroke-width:1.2131">用自己的私钥解密文件</tspan></text><path
       style="fill:none;fill-opacity:1;stroke:#1f7223;stroke-width:1.21311;stroke-linecap:round;stroke-linejoin:round;stroke-dasharray:none;stroke-dashoffset:0;stroke-opacity:1;marker-end:url(#Triangle)"
       d="m 221.39947,96.11182 c 0,0 -10.15136,7.40006 -11.65537,24.45474"
       id="path139" /><path
       style="fill:none;fill-opacity:1;stroke:#8f0d8b;stroke-width:1.2131;stroke-linecap:round;stroke-linejoin:round;stroke-dasharray:none;stroke-dashoffset:0;stroke-opacity:1;marker-end:url(#Triangle)"
       d="m 73.982464,109.72173 c 0,0 8.154532,-0.79874 13.40235,9.89167"
       id="path140"
       sodipodi:nodetypes="cc" /><use
       x="0"
       y="0"
       xlink:href="#g142"
       id="use145"
       transform="translate(-175.22206,20.255848)" /><use
       x="0"
       y="0"
       xlink:href="#g142"
       id="use146"
       transform="translate(-143.29746,55.173798)" /><use
       x="0"
       y="0"
       xlink:href="#g143"
       id="use147"
       transform="translate(-28.769421,45.454564)" /><use
       x="0"
       y="0"
       xlink:href="#g142"
       id="use148"
       transform="matrix(0.61163114,0.35318414,-0.35318414,0.61163114,96.913472,-79.94039)" /><use
       x="0"
       y="0"
       xlink:href="#use148"
       id="use149"
       transform="rotate(-64.882901,197.33139,144.43609)" /><path
       style="fill:none;fill-opacity:1;stroke:#ffffff;stroke-width:1.2;stroke-linecap:round;stroke-linejoin:round;stroke-dasharray:3.6, 3.6;stroke-dashoffset:0;stroke-opacity:1"
       d="m 124.65842,86.25772 c 0,0 18.56546,-8.570678 51.75499,-8.393484 33.18954,0.177194 43.97131,4.301199 43.97131,4.301199"
       id="path149"
       sodipodi:nodetypes="csc" /><text
       xml:space="preserve"
       style="font-style:normal;font-variant:normal;font-weight:normal;font-stretch:normal;font-size:5.64444px;font-family:'Noto Naskh Arabic';-inkscape-font-specification:'Noto Naskh Arabic';fill:#1f7223;fill-opacity:1;stroke:none;stroke-width:4.99999;stroke-linecap:round;stroke-linejoin:round;stroke-dasharray:15, 15;stroke-dashoffset:0;stroke-opacity:1"
       id="text149"
       transform="translate(0.92064331,-2.306634)"><textPath
         xlink:href="#path149"
         id="textPath149"><tspan
           id="tspan149"
           style="font-style:normal;font-variant:normal;font-weight:normal;font-stretch:normal;font-size:5.64444px;font-family:'Noto Naskh Arabic';-inkscape-font-specification:'Noto Naskh Arabic';fill:#1f7223;fill-opacity:1;stroke:none;stroke-width:5;stroke-opacity:1">                                  共享自己的公钥</tspan></textPath></text><rect
       style="fill:#666666;fill-opacity:1;stroke:none;stroke-width:0.946297;stroke-linecap:round;stroke-linejoin:round;stroke-dasharray:2.83889, 2.83889;stroke-dashoffset:0;stroke-opacity:1"
       id="rect150"
       width="71.055412"
       height="19.791559"
       x="0.69646263"
       y="0.68268359" /><text
       xml:space="preserve"
       style="font-style:normal;font-variant:normal;font-weight:normal;font-stretch:normal;font-size:8.46667px;font-family:'Noto Naskh Arabic';-inkscape-font-specification:'Noto Naskh Arabic';fill:#ffffff;fill-opacity:1;stroke:none;stroke-width:1.2;stroke-linecap:round;stroke-linejoin:round;stroke-dasharray:3.6, 3.6;stroke-dashoffset:0;stroke-opacity:1"
       x="5.3081198"
       y="13.833898"
       id="text150"><tspan
         sodipodi:role="line"
         id="tspan150"
         style="font-size:8.46667px;fill:#ffffff;stroke:none;stroke-width:1.2"
         x="5.3081198"
         y="13.833898">GnuPG加密步骤</tspan></text><g
       id="g151"
       transform="translate(1.1589431,191.21014)"><path
         inkscape:connector-curvature="0"
         style="fill:#aab2ab;stroke-width:0.264583"
         d="m 261.40005,4.485225 31.99079,0.056962 c 0.44699,0 0.84633,-0.066413 0.84633,0.8918358 L 294.198,15.969118 H 260.59262 V 5.3948601 c 0,-0.4724135 0.0457,-0.9096351 0.80743,-0.9096351 z"
         nodetypes="ccccccc"
         id="path3817_4_" /><path
         inkscape:connector-curvature="0"
         id="path364"
         d="m 293.67048,4.3593851 h -32.59827 c -0.34976,0 -0.63434,0.2845441 -0.63434,0.6341295 V 16.069626 c 0,0.07901 0.0641,0.143092 0.14325,0.143092 h 33.58018 c 0.0792,0 0.14324,-0.06408 0.14324,-0.143092 V 4.9935146 c 0,-0.3495854 -0.28457,-0.6341295 -0.63406,-0.6341295 z m -32.59827,0.2864594 h 32.59827 c 0.19173,0 0.34757,0.1559643 0.34757,0.3476701 0,0 0,4.4564337 0,7.6804874 h -23.29912 c -0.85399,1.543902 -2.49953,2.592249 -4.38774,2.592249 -1.88875,0 -3.53374,-1.047388 -4.38719,-2.592249 h -1.21964 c 0,-3.224051 0,-7.6804874 0,-7.6804874 0,-0.191703 0.15612,-0.3476701 0.34785,-0.3476701 z"
         style="stroke-width:0.264583" /><g
         transform="matrix(0.24482358,0,0,0.24479818,151.13135,44.521809)"
         id="g5908_4_"><path
           inkscape:connector-curvature="0"
           style="fill:#ffffff"
           d="m 486.26709,-141.53052 c 0.006,8.68024 -7.02789,15.72095 -15.70807,15.72711 -8.68024,0.005 -15.7215,-7.02783 -15.72711,-15.70807 0,-0.007 0,-0.0129 0,-0.019 -0.006,-8.68134 7.02783,-15.72205 15.70807,-15.72711 8.68134,-0.005 15.72266,7.02789 15.72711,15.70813 0,0.006 0,0.0123 0,0.019 z"
           rx="22.939548"
           type="arc"
           cy="264.3577"
           ry="22.939548"
           cx="296.35416"
           id="path5906_4_" /><g
           transform="translate(-289.6157,99.0653)"
           id="g5706_4_"><path
             inkscape:connector-curvature="0"
             d="m 772.94281,-253.39801 c 3.4848,3.48541 5.22778,7.75336 5.22778,12.80219 0,5.04938 -1.71277,9.27148 -5.13831,12.66797 -3.63586,3.57599 -7.93182,5.36371 -12.89001,5.36371 -4.89777,0 -9.11987,-1.77258 -12.664,-5.31952 -3.54639,-3.54584 -5.31842,-7.78302 -5.31842,-12.71216 0,-4.92853 1.77203,-9.19592 5.31842,-12.80219 3.45465,-3.48706 7.6767,-5.22949 12.664,-5.22949 5.04883,0 9.31458,1.74243 12.80054,5.22949 z m -23.11859,2.3443 c -2.94672,2.97638 -4.4201,6.46289 -4.4201,10.4624 0,3.99829 1.45886,7.4552 4.37427,10.37115 2.91766,2.91595 6.38904,4.37421 10.4176,4.37421 4.02856,0 7.53015,-1.47278 10.50708,-4.41895 2.82593,-2.73584 4.23889,-6.17706 4.23889,-10.32642 0,-4.11804 -1.43646,-7.61353 -4.30823,-10.48474 -2.87067,-2.87067 -6.34991,-4.30658 -10.43774,-4.30658 -4.08783,0 -7.54694,1.44319 -10.37177,4.32893 z m 7.7539,8.70319 c -0.44971,-0.98169 -1.12317,-1.47229 -2.02264,-1.47229 -1.58856,0 -2.38287,1.06952 -2.38287,3.20856 0,2.13953 0.79431,3.2085 2.38287,3.2085 1.04938,0 1.79895,-0.52075 2.24866,-1.56451 l 2.20276,1.17297 c -1.05048,1.86548 -2.62567,2.79907 -4.72552,2.79907 -1.61987,0 -2.9176,-0.49677 -3.89203,-1.48962 -0.97552,-0.99341 -1.46332,-2.36273 -1.46332,-4.10797 0,-1.71558 0.50342,-3.07703 1.50806,-4.08557 1.00464,-1.00854 2.25763,-1.51196 3.75781,-1.51196 2.2207,0 3.80927,0.87427 4.77136,2.62231 z m 10.36396,0 c -0.45087,-0.98169 -1.11206,-1.47229 -1.98242,-1.47229 -1.62103,0 -2.43213,1.06952 -2.43213,3.20856 0,2.13953 0.8111,3.2085 2.43213,3.2085 1.05164,0 1.78772,-0.52075 2.20728,-1.56451 l 2.25201,1.17297 c -1.04828,1.86548 -2.62122,2.79907 -4.71771,2.79907 -1.61768,0 -2.91205,-0.49677 -3.88647,-1.48962 -0.97217,-0.99341 -1.4599,-2.36273 -1.4599,-4.10797 0,-1.71558 0.49445,-3.07703 1.4834,-4.08557 0.98785,-1.00854 2.2453,-1.51196 3.7735,-1.51196 2.21619,0 3.80365,0.87427 4.76129,2.62231 z"
             id="path5708_4_" /></g></g><g
         id="g370"
         enable-background="new    "
         transform="matrix(0.28046479,0,0,0.28043566,137.07295,4.3593851)"><path
           inkscape:connector-curvature="0"
           style="fill:#ffffff"
           id="path372"
           d="m 488.25342,32.95605 c 0.31738,0 0.6084,0.02832 0.87012,0.08398 0.26172,0.05566 0.48535,0.14746 0.67285,0.27539 0.18652,0.12695 0.33105,0.29688 0.43457,0.50781 0.10254,0.21191 0.1543,0.47266 0.1543,0.78418 0,0.33594 -0.0762,0.61523 -0.22949,0.83887 -0.15234,0.22461 -0.37793,0.40723 -0.67773,0.55078 0.41211,0.11816 0.71973,0.3252 0.92285,0.62109 0.20312,0.29589 0.30469,0.65234 0.30469,1.06934 0,0.33594 -0.0654,0.62695 -0.19629,0.87305 -0.13086,0.24512 -0.30762,0.44629 -0.52832,0.60156 -0.22168,0.15625 -0.47461,0.27148 -0.75781,0.3457 -0.28418,0.0752 -0.5752,0.1123 -0.875,0.1123 h -3.23633 v -6.66406 h 3.14159 z m -0.18653,2.69532 c 0.26074,0 0.47656,-0.0625 0.64453,-0.18652 0.16797,-0.12402 0.25195,-0.3252 0.25195,-0.60449 0,-0.15527 -0.0283,-0.2832 -0.084,-0.38184 -0.0566,-0.09961 -0.13086,-0.17676 -0.22461,-0.2334 -0.0937,-0.05566 -0.20117,-0.09473 -0.32227,-0.11621 -0.1211,-0.02148 -0.24805,-0.03223 -0.37891,-0.03223 h -1.37305 v 1.55469 h 1.48634 z m 0.085,2.82812 c 0.14355,0 0.28027,-0.01367 0.41113,-0.04199 0.13086,-0.02832 0.24609,-0.0752 0.34668,-0.13965 0.0996,-0.06543 0.17871,-0.1543 0.23828,-0.2666 0.0596,-0.11133 0.0889,-0.25488 0.0889,-0.42871 0,-0.3418 -0.0967,-0.58594 -0.29004,-0.73242 -0.19336,-0.14551 -0.44824,-0.21875 -0.7666,-0.21875 h -1.59961 v 1.82812 h 1.57129 z" /><path
           inkscape:connector-curvature="0"
           style="fill:#ffffff"
           id="path374"
           d="m 490.96436,32.95605 h 1.64355 l 1.56055,2.63184 1.55078,-2.63184 h 1.63379 l -2.47363,4.10645 v 2.55762 h -1.46875 v -2.59473 z" /></g><g
         id="g376"
         enable-background="new    "
         transform="matrix(0.28046479,0,0,0.28043566,137.07295,4.3593851)"><path
           inkscape:connector-curvature="0"
           style="fill:#ffffff"
           id="path378"
           d="m 512.83057,32.95605 2.78418,4.4707 h 0.0156 v -4.4707 h 1.375 v 6.66406 h -1.46582 l -2.77344,-4.46191 h -0.0186 v 4.46191 h -1.375 v -6.66406 h 1.45801 z" /><path
           inkscape:connector-curvature="0"
           style="fill:#ffffff"
           id="path380"
           d="m 522.56885,34.73145 c -0.0869,-0.14062 -0.19629,-0.26367 -0.32715,-0.36914 -0.13086,-0.10547 -0.27832,-0.18848 -0.44336,-0.24707 -0.16504,-0.05957 -0.33789,-0.08887 -0.51758,-0.08887 -0.33008,0 -0.61035,0.06348 -0.84082,0.19141 -0.23047,0.12695 -0.41699,0.29785 -0.55957,0.5127 -0.14355,0.21484 -0.24805,0.45898 -0.31348,0.73242 -0.0654,0.27344 -0.0977,0.55664 -0.0977,0.84863 0,0.28027 0.0322,0.55273 0.0977,0.81641 0.0654,0.26465 0.16992,0.50293 0.31348,0.71387 0.14258,0.21191 0.3291,0.38086 0.55957,0.50879 0.23047,0.12793 0.51074,0.19141 0.84082,0.19141 0.44727,0 0.79785,-0.13672 1.0498,-0.41113 0.25195,-0.27344 0.40625,-0.63477 0.46191,-1.08301 h 1.41895 c -0.0371,0.41699 -0.13379,0.79395 -0.28906,1.12988 -0.15527,0.33691 -0.36133,0.62305 -0.61621,0.86035 -0.25488,0.2373 -0.55371,0.41797 -0.89648,0.54297 -0.3418,0.125 -0.71875,0.1875 -1.12891,0.1875 -0.51074,0 -0.96973,-0.08887 -1.37793,-0.2666 -0.40723,-0.17676 -0.75195,-0.42188 -1.03223,-0.73242 -0.28125,-0.31152 -0.49609,-0.67773 -0.64551,-1.09766 -0.14941,-0.4209 -0.22461,-0.87305 -0.22461,-1.35938 0,-0.49805 0.0752,-0.95996 0.22461,-1.38672 0.14941,-0.42676 0.36426,-0.79883 0.64551,-1.11621 0.28027,-0.31738 0.625,-0.56641 1.03223,-0.74707 0.4082,-0.18066 0.86719,-0.27051 1.37793,-0.27051 0.36719,0 0.71387,0.05273 1.04102,0.15918 0.32617,0.10547 0.61914,0.25977 0.87695,0.46289 0.25879,0.20215 0.47168,0.45312 0.63965,0.75195 0.16797,0.29883 0.27344,0.6416 0.31738,1.02734 h -1.41895 c -0.0244,-0.16797 -0.0811,-0.32227 -0.16796,-0.46191 z" /></g><g
         id="g382"
         enable-background="new    "
         transform="matrix(0.28046479,0,0,0.28043566,137.07295,4.3593851)"><path
           inkscape:connector-curvature="0"
           style="fill:#ffffff"
           id="path384"
           d="m 538.83057,32.95605 2.78418,4.4707 h 0.0156 v -4.4707 h 1.375 v 6.66406 h -1.46582 l -2.77344,-4.46191 h -0.0186 v 4.46191 h -1.375 v -6.66406 h 1.45801 z" /><path
           inkscape:connector-curvature="0"
           style="fill:#ffffff"
           id="path386"
           d="m 547.16748,32.95605 c 0.43066,0 0.83008,0.06836 1.20117,0.20508 0.37109,0.13672 0.69141,0.34277 0.96289,0.61621 0.27051,0.27344 0.48242,0.61621 0.63477,1.02637 0.15332,0.41113 0.22949,0.89355 0.22949,1.44727 0,0.48535 -0.0625,0.93262 -0.18652,1.34375 -0.125,0.41016 -0.31348,0.76562 -0.56543,1.06348 -0.25293,0.29883 -0.56738,0.53418 -0.94434,0.70508 -0.37696,0.1709 -0.82031,0.25684 -1.33203,0.25684 h -2.87793 v -6.66406 h 2.87793 z m -0.10254,5.42969 c 0.21191,0 0.41699,-0.03418 0.61621,-0.10254 0.19922,-0.06836 0.37695,-0.18164 0.53223,-0.34082 0.15527,-0.1582 0.28027,-0.36426 0.37402,-0.61914 0.0928,-0.25488 0.13965,-0.56641 0.13965,-0.93262 0,-0.33594 -0.0322,-0.63867 -0.0977,-0.90918 -0.0654,-0.27051 -0.17285,-0.50195 -0.32227,-0.69434 -0.14942,-0.19239 -0.34668,-0.34082 -0.59277,-0.44336 -0.24609,-0.10254 -0.5498,-0.15332 -0.91016,-0.15332 h -1.0459 v 4.19531 h 1.30665 v 10e-6 z" /></g><g
         transform="matrix(0.17528907,0,0,0.17527087,224.81666,93.238641)"
         id="g6394_1_"><path
           inkscape:connector-curvature="0"
           style="fill:#ffffff"
           d="m 387.83435,-482.97366 c 0.008,9.41101 -7.61725,17.047 -17.02826,17.05481 -9.4126,0.005 -17.04858,-7.61804 -17.05487,-17.03137 0,-0.007 0,-0.0164 0,-0.0234 -0.006,-9.4118 7.61725,-17.04779 17.02985,-17.05487 9.41101,-0.008 17.047,7.61725 17.05328,17.02905 0,0.009 0,0.0164 0,0.0258 z"
           rx="29.209877"
           type="arc"
           cy="252.08646"
           ry="29.209877"
           cx="475.97119"
           id="path6396_1_" /><g
           transform="translate(-23.9521,-87.92102)"
           id="g6398_1_"><path
             inkscape:connector-curvature="0"
             d="m 394.47845,-413.72311 c -5.17194,0 -9.55005,1.8031 -13.13293,5.41333 -3.67657,3.73358 -5.5141,8.15161 -5.5141,13.25714 0,5.10315 1.83752,9.48993 5.5141,13.1618 3.67505,3.67188 8.05475,5.50787 13.13293,5.50787 5.14069,0 9.5954,-1.85236 13.36572,-5.55316 3.55005,-3.51721 5.32819,-7.88995 5.32819,-13.11652 0,-5.22974 -1.8078,-9.64697 -5.42194,-13.25714 -3.61407,-3.61022 -8.03912,-5.41332 -13.27197,-5.41332 z m 0.0453,3.35858 c 4.23749,0 7.836,1.49457 10.79694,4.48285 2.99066,2.95551 4.48444,6.56415 4.48444,10.82904 0,4.29376 -1.46252,7.85626 -4.39069,10.68756 -3.08594,3.05005 -6.7157,4.57269 -10.89069,4.57269 -4.17505,0 -7.7735,-1.50781 -10.79541,-4.5274 -3.02191,-3.01721 -4.53284,-6.59613 -4.53284,-10.73285 0,-4.14069 1.52655,-7.74933 4.58124,-10.82904 2.92817,-2.98828 6.50946,-4.48285 10.74701,-4.48285 z"
             id="path6400_1_" /><g
             id="g6402_1_"><path
               inkscape:connector-curvature="0"
               d="m 401.55505,-399.47849 h -13.57037 v 3.2149 h 13.57037 z m 0,6.00086 h -13.57037 v 3.21405 h 13.57037 z"
               id="path6404_1_" /></g></g></g><g
         id="g398"
         transform="matrix(0.28046479,0,0,0.28043566,137.07295,4.3593851)"><circle
           style="fill:#ffffff"
           id="circle400"
           r="10.80615"
           cy="15.31396"
           cx="491.9473" /><g
           id="g402"><path
             inkscape:connector-curvature="0"
             id="path404"
             d="m 495.07474,12.18701 c 0,-0.4165 -0.33789,-0.75342 -0.75391,-0.75342 h -4.77246 c -0.41602,0 -0.75391,0.33691 -0.75391,0.75342 v 4.77295 h 1.33105 v 5.65234 h 3.61719 v -5.65234 h 1.33203 v -4.77295 z" /><circle
             id="circle406"
             r="1.63232"
             cy="9.1723604"
             cx="491.9346" /></g><path
           inkscape:connector-curvature="0"
           style="fill-rule:evenodd"
           id="path408"
           d="m 491.91946,3.40771 c -3.23145,0 -5.96777,1.12744 -8.20703,3.38379 -2.29785,2.33301 -3.44629,5.09521 -3.44629,8.28418 0,3.18897 1.14844,5.93213 3.44629,8.22705 2.29785,2.29443 5.03418,3.44189 8.20703,3.44189 3.21289,0 5.99805,-1.15674 8.35449,-3.47168 2.21973,-2.19678 3.3291,-4.92969 3.3291,-8.19727 0,-3.26758 -1.12891,-6.02832 -3.3877,-8.28418 -2.25878,-2.25633 -5.02342,-3.38378 -8.29589,-3.38378 z m 0.0303,2.09961 c 2.64844,0 4.89648,0.93359 6.74609,2.80078 1.87012,1.84717 2.80469,4.10352 2.80469,6.76758 0,2.68359 -0.91504,4.91113 -2.74609,6.68066 -1.92773,1.90576 -4.19629,2.8584 -6.80469,2.8584 -2.61035,0 -4.85938,-0.94287 -6.74805,-2.8291 -1.88867,-1.88672 -2.83301,-4.12305 -2.83301,-6.70996 0,-2.58643 0.9541,-4.84229 2.8623,-6.76758 1.83106,-1.86718 4.07032,-2.80078 6.71876,-2.80078 z"
           clip-rule="evenodd" /></g><g
         id="g2366"
         transform="matrix(0.28222223,0,0,0.28222223,260.43787,4.3593851)"><path
           inkscape:connector-curvature="0"
           id="path6372_1_"
           cx="475.97119"
           ry="29.209877"
           cy="252.08646"
           type="arc"
           rx="29.209877"
           d="m 87.801399,14.981221 c 0.0048,5.500587 -4.451603,9.961917 -9.953251,9.966304 -5.500714,0.0034 -9.962985,-4.45211 -9.966848,-9.951763 0,-0.0058 0,-0.01019 0,-0.01454 -0.0039,-5.5010765 4.452572,-9.9624055 9.953251,-9.9667814 5.50068,-0.00341 9.96295,4.4521099 9.966848,9.9517284 0,0.0049 0,0.01019 0,0.01505 z"
           style="fill:#ffffff" /><path
           inkscape:connector-curvature="0"
           id="path45"
           d="m 86.070369,6.7455646 c -2.24512,-2.242292 -4.99278,-3.362732 -8.24368,-3.362732 -3.21268,0 -5.93132,1.12044 -8.15662,3.362732 -2.28405,2.319442 -3.42502,5.0635624 -3.42502,8.2337704 0,3.169502 1.14097,5.89522 3.42502,8.175023 2.28334,2.28122 5.00198,3.421479 8.15662,3.421479 3.19286,0 5.96033,-1.150166 8.30171,-3.449789 2.2062,-2.184252 3.30965,-4.900058 3.30965,-8.146713 0,-3.247361 -1.12256,-5.9921884 -3.36768,-8.2337704 z m -1.45169,14.8728804 c -1.916,1.894056 -4.17032,2.840378 -6.76297,2.840378 -2.59336,0 -4.82858,-0.93712 -6.70565,-2.812068 -1.87707,-1.874948 -2.8156,-4.097421 -2.8156,-6.667423 0,-1.087172 0.17164,-2.114891 0.51103,-3.083862 l 3.07288,1.360027 h -0.22154 v 1.378074 h 1.08753 c 0,0.194644 -0.01946,0.388581 -0.01946,0.582514 v 0.33054 h -1.06807 v 1.378074 h 1.262 c 0.17482,1.029132 0.56305,1.863623 1.08717,2.523993 1.08717,1.436821 2.83436,2.213272 4.73692,2.213272 1.24288,0 2.36828,-0.368761 3.02865,-0.738229 l -0.46644,-2.154525 c -0.40769,0.213752 -1.31933,0.504658 -2.21257,0.504658 -0.97109,0 -1.88308,-0.290902 -2.50452,-0.990204 -0.29126,-0.329833 -0.50466,-0.776451 -0.6402,-1.358965 h 4.22057 l 5.99714,2.654584 c -0.41547,0.736114 -0.94277,1.416303 -1.58687,2.039162 z m -7.54225,-6.071813 -0.02548,-0.01946 0.04388,0.01946 z m 3.61045,-0.913054 h 0.17342 v -1.378074 h -3.287 l -1.33525,-0.591008 c 0.11501,-0.258345 0.25091,-0.489441 0.40945,-0.670281 0.60198,-0.738937 1.45594,-1.048951 2.3881,-1.048951 0.85431,0 1.64987,0.251974 2.15453,0.46573 l 0.54358,-2.2132724 c -0.6993,-0.310015 -1.72773,-0.581808 -2.91187,-0.581808 -1.82469,0 -3.37794,0.737523 -4.48458,1.9797014 -0.2456,0.283824 -0.45865,0.602333 -0.65188,0.939244 l -3.8136,-1.6877374 c 0.36947,-0.554204 0.80406,-1.086465 1.3073,-1.593953 1.81974,-1.855836 4.04434,-2.783755 6.67662,-2.783755 2.63158,0 4.8668,0.927919 6.70565,2.783755 1.85725,1.8360194 2.78588,4.0776014 2.78588,6.7261704 0,0.872709 -0.0991,1.695876 -0.29445,2.471617 z" /></g><g
         id="g3059"
         transform="matrix(0.28046479,0,0,0.28043566,124.49831,-0.14652767)"><path
           inkscape:connector-curvature="0"
           id="path3061"
           d="m 495.07474,12.18701 c 0,-0.4165 -0.33789,-0.75342 -0.75391,-0.75342 h -4.77246 c -0.41602,0 -0.75391,0.33691 -0.75391,0.75342 v 4.77295 h 1.33105 v 5.65234 h 3.61719 v -5.65234 h 1.33203 v -4.77295 z" /><circle
           id="circle3063"
           r="1.63232"
           cy="9.1723604"
           cx="491.9346" /></g><text
         xml:space="preserve"
         style="font-style:normal;font-variant:normal;font-weight:bold;font-stretch:normal;font-size:2.82222px;font-family:P052;-inkscape-font-specification:'P052 Bold';fill:#000000;fill-opacity:1;stroke:none;stroke-width:1.2;stroke-linecap:round;stroke-linejoin:round;stroke-dasharray:3.6, 3.6;stroke-dashoffset:0;stroke-opacity:1"
         x="267.08539"
         y="3.7338643"
         id="text151"><tspan
           sodipodi:role="line"
           id="tspan151"
           style="font-style:normal;font-variant:normal;font-weight:bold;font-stretch:normal;font-size:2.82222px;font-family:P052;-inkscape-font-specification:'P052 Bold';fill:#000000;fill-opacity:1;stroke-width:1.2"
           x="267.08539"
           y="3.7338643">eexpss@139.com</tspan></text></g></g></svg>
