<?xml version="1.0" encoding="UTF-8" standalone="no"?>
<!-- Created with Inkscape (http://www.inkscape.org/) -->

<svg
   width="90mm"
   height="68.984718mm"
   viewBox="0 0 90 68.984718"
   version="1.1"
   id="svg1"
   xml:space="preserve"
   inkscape:version="1.3 (0e150ed6c4, 2023-07-21)"
   sodipodi:docname="regex.svg"
   inkscape:export-filename="regex.png"
   inkscape:export-xdpi="96"
   inkscape:export-ydpi="96"
   xmlns:inkscape="http://www.inkscape.org/namespaces/inkscape"
   xmlns:sodipodi="http://sodipodi.sourceforge.net/DTD/sodipodi-0.dtd"
   xmlns="http://www.w3.org/2000/svg"
   xmlns:svg="http://www.w3.org/2000/svg"><sodipodi:namedview
     id="namedview1"
     pagecolor="#505050"
     bordercolor="#ffffff"
     borderopacity="1"
     inkscape:showpageshadow="0"
     inkscape:pageopacity="0"
     inkscape:pagecheckerboard="1"
     inkscape:deskcolor="#505050"
     inkscape:document-units="mm"
     inkscape:zoom="2.0536084"
     inkscape:cx="169.94477"
     inkscape:cy="135.128"
     inkscape:window-width="1504"
     inkscape:window-height="749"
     inkscape:window-x="26"
     inkscape:window-y="23"
     inkscape:window-maximized="0"
     inkscape:current-layer="layer1" /><defs
     id="defs1"><marker
       style="overflow:visible"
       id="Triangle"
       refX="0"
       refY="0"
       orient="auto-start-reverse"
       inkscape:stockid="Triangle arrow"
       markerWidth="1"
       markerHeight="1"
       viewBox="0 0 1 1"
       inkscape:isstock="true"
       inkscape:collect="always"
       preserveAspectRatio="xMidYMid"><path
         transform="scale(0.5)"
         style="fill:context-stroke;fill-rule:evenodd;stroke:context-stroke;stroke-width:1pt"
         d="M 5.77,0 -2.88,5 V -5 Z"
         id="path135" /></marker></defs><g
     inkscape:label="图层 1"
     inkscape:groupmode="layer"
     id="layer1"
     transform="translate(-37.871914,-82.945609)"><rect
       style="fill:#dfdfdf;fill-opacity:1;stroke:none;stroke-width:1.38741;stroke-linecap:round;stroke-linejoin:round;stroke-dasharray:4.16223, 4.16223"
       id="rect16"
       width="90"
       height="39.986107"
       x="37.871914"
       y="111.94422"
       ry="3.6067016" /><rect
       style="fill:#dfdfdf;fill-opacity:1;stroke:none;stroke-width:1.23127;stroke-linecap:round;stroke-linejoin:round;stroke-dasharray:3.69381, 3.69381"
       id="rect15"
       width="90"
       height="15.588476"
       x="37.871914"
       y="95.851997"
       ry="2.8391211" /><text
       xml:space="preserve"
       style="font-weight:bold;font-size:4.23333px;font-family:P052;-inkscape-font-specification:'P052 Bold';fill:#000080;fill-opacity:1;stroke:none;stroke-width:1.2;stroke-linecap:round;stroke-linejoin:round;stroke-dasharray:3.6, 3.6"
       x="43.167515"
       y="101.96349"
       id="text4"><tspan
         sodipodi:role="line"
         id="tspan4"
         style="font-size:4.23333px;fill:#000000;stroke-width:1.2"
         x="43.167515"
         y="101.96349"><tspan
   style="fill:#00007f;fill-opacity:1"
   id="tspan38">my</tspan> $string = <tspan
   style="fill:#ff8000;fill-opacity:1"
   id="tspan37">&quot;Say 'Hello, World!' Again.&quot;</tspan>;</tspan><tspan
         sodipodi:role="line"
         style="font-size:4.23333px;fill:#000000;stroke-width:1.2"
         x="43.167515"
         y="107.25516"
         id="tspan5">$string =~ /(<tspan
   style="fill:#008000"
   id="tspan8">\w+</tspan>), (<tspan
   style="fill:#000080"
   id="tspan9">\w+</tspan>)!/;</tspan></text><g
       id="g31"
       transform="translate(1.4163578,0.15266771)"><text
         xml:space="preserve"
         style="font-weight:bold;font-size:5.64444px;font-family:P052;-inkscape-font-specification:'P052 Bold';fill:none;stroke:#1f7223;stroke-width:1.2;stroke-linecap:round;stroke-linejoin:round;stroke-dasharray:3.6, 3.6"
         x="48.048965"
         y="126.29631"
         id="text1"><tspan
           sodipodi:role="line"
           id="tspan1"
           style="font-size:5.64444px;fill:#000000;fill-opacity:1;stroke:none;stroke-width:1.2"
           x="48.048965"
           y="126.29631"><tspan
   style="fill:#ff6600"
   id="tspan6">Say '</tspan><tspan
   style="fill:#008000"
   id="tspan2">Hello</tspan>, <tspan
   style="fill:#000080"
   id="tspan3">World</tspan>!<tspan
   style="fill:#aa8800"
   id="tspan7">' Again.</tspan></tspan></text><g
         id="g30"><g
           id="g24"
           transform="translate(1.0583333)"><text
             xml:space="preserve"
             style="font-weight:bold;font-size:4.23333px;font-family:P052;-inkscape-font-specification:'P052 Bold';fill:#d45500;fill-opacity:1;stroke:none;stroke-width:1.2;stroke-linecap:round;stroke-linejoin:round;stroke-dasharray:3.6, 3.6"
             x="63.894814"
             y="134.57605"
             id="text11"><tspan
               sodipodi:role="line"
               id="tspan11"
               style="fill:#008000;stroke-width:1.2"
               x="63.894814"
               y="134.57605">$1</tspan></text><text
             xml:space="preserve"
             style="font-weight:bold;font-size:7.81937px;font-family:P052;-inkscape-font-specification:'P052 Bold';fill:#008000;fill-opacity:1;stroke:none;stroke-width:2.21652;stroke-linecap:round;stroke-linejoin:round;stroke-dasharray:6.64955, 6.64955"
             x="-240.69774"
             y="38.095581"
             id="text21"
             transform="matrix(0,-0.54139046,1.8470957,0,0,0)"><tspan
               sodipodi:role="line"
               id="tspan21"
               style="fill:#008000;fill-opacity:1;stroke-width:2.21652"
               x="-240.69774"
               y="38.095581">{</tspan></text></g><g
           id="g25"><text
             xml:space="preserve"
             style="font-weight:bold;font-size:4.23333px;font-family:P052;-inkscape-font-specification:'P052 Bold';fill:#008000;fill-opacity:1;stroke:none;stroke-width:1.2;stroke-linecap:round;stroke-linejoin:round;stroke-dasharray:3.6, 3.6"
             x="83.491989"
             y="134.57605"
             id="text12"><tspan
               sodipodi:role="line"
               id="tspan12"
               style="fill:#000080;stroke-width:1.2"
               x="83.491989"
               y="134.57605">$2</tspan></text><text
             xml:space="preserve"
             style="font-weight:bold;font-size:8.30409px;font-family:P052;-inkscape-font-specification:'P052 Bold';fill:#000080;fill-opacity:1;stroke:none;stroke-width:2.35392;stroke-linecap:round;stroke-linejoin:round;stroke-dasharray:7.06175, 7.06175"
             x="-255.61847"
             y="46.166775"
             id="text22"
             transform="matrix(0,-0.5097889,1.9615963,0,0,0)"><tspan
               sodipodi:role="line"
               id="tspan22"
               style="fill:#000080;fill-opacity:1;stroke-width:2.35392"
               x="-255.61847"
               y="46.166775">{</tspan></text></g></g><g
         id="g29"><g
           id="g26"
           transform="translate(0,-1.0583333)"><text
             xml:space="preserve"
             style="font-weight:bold;font-size:4.23333px;font-family:P052;-inkscape-font-specification:'P052 Bold';fill:#000080;fill-opacity:1;stroke:none;stroke-width:1.2;stroke-linecap:round;stroke-linejoin:round;stroke-dasharray:3.6, 3.6"
             x="52.330143"
             y="119.25448"
             id="text10"><tspan
               sodipodi:role="line"
               id="tspan10"
               style="fill:#ff6600;stroke-width:1.2"
               x="52.330143"
               y="119.25448">$`</tspan></text><text
             xml:space="preserve"
             style="font-weight:bold;font-size:7.24981px;font-family:P052;-inkscape-font-specification:'P052 Bold';fill:#ff6600;fill-opacity:1;stroke:none;stroke-width:2.05507;stroke-linecap:round;stroke-linejoin:round;stroke-dasharray:6.1652, 6.1652"
             x="206.54166"
             y="33.729702"
             id="text20"
             transform="matrix(0,0.58392293,1.7125548,0,0,0)"><tspan
               sodipodi:role="line"
               id="tspan20"
               style="fill:#ff6600;fill-opacity:1;stroke-width:2.05507"
               x="206.54166"
               y="33.729702">{</tspan></text></g><g
           id="g28"
           transform="translate(0,-1.0583316)"><text
             xml:space="preserve"
             style="font-weight:bold;font-size:4.23333px;font-family:P052;-inkscape-font-specification:'P052 Bold';fill:#000080;fill-opacity:1;stroke:none;stroke-width:1.2;stroke-linecap:round;stroke-linejoin:round;stroke-dasharray:3.6, 3.6"
             x="103.17735"
             y="119.25448"
             id="text13"><tspan
               sodipodi:role="line"
               id="tspan13"
               style="fill:#aa8800;stroke-width:1.2"
               x="103.17735"
               y="119.25448">$'</tspan></text><text
             xml:space="preserve"
             style="font-weight:bold;font-size:9.50961px;font-family:P052;-inkscape-font-specification:'P052 Bold';fill:#aa8800;fill-opacity:1;stroke:none;stroke-width:2.69564;stroke-linecap:round;stroke-linejoin:round;stroke-dasharray:8.08692, 8.08692"
             x="270.92148"
             y="49.489784"
             id="text23"
             transform="matrix(0,0.44516369,2.2463647,0,0,0)"><tspan
               sodipodi:role="line"
               id="tspan23"
               style="fill:#aa8800;fill-opacity:1;stroke-width:2.69564"
               x="270.92148"
               y="49.489784">{</tspan></text></g><g
           id="g27"
           transform="translate(0,-1.0583335)"><text
             xml:space="preserve"
             style="font-weight:bold;font-size:4.23333px;font-family:P052;-inkscape-font-specification:'P052 Bold';fill:#b3b3b3;fill-opacity:1;stroke:none;stroke-width:1.2;stroke-linecap:round;stroke-linejoin:round;stroke-dasharray:3.6, 3.6"
             x="74.818565"
             y="119.25448"
             id="text18"><tspan
               sodipodi:role="line"
               id="tspan18"
               style="fill:#ff0000;stroke-width:1.2"
               x="74.818565"
               y="119.25448">$&amp;</tspan></text><text
             xml:space="preserve"
             style="font-weight:bold;font-size:13.0697px;font-family:P052;-inkscape-font-specification:'P052 Bold';fill:#ff0000;fill-opacity:1;stroke:none;stroke-width:3.7048;stroke-linecap:round;stroke-linejoin:round;stroke-dasharray:11.1144, 11.1144"
             x="372.34552"
             y="29.126631"
             id="text26"
             transform="matrix(0,0.32390455,3.0873293,0,0,0)"><tspan
               sodipodi:role="line"
               id="tspan26"
               style="fill:#ff0000;fill-opacity:1;stroke-width:3.7048"
               x="372.34552"
               y="29.126631">{</tspan></text></g></g></g><text
       xml:space="preserve"
       style="font-weight:bold;font-size:2.82222px;font-family:P052;-inkscape-font-specification:'P052 Bold';fill:#008000;fill-opacity:1;stroke:none;stroke-width:1.2;stroke-linecap:round;stroke-linejoin:round;stroke-dasharray:3.6, 3.6"
       x="59.468685"
       y="142.22252"
       id="text31"><tspan
         sodipodi:role="line"
         id="tspan31"
         style="font-size:2.82222px;fill:#008000;fill-opacity:1;stroke-width:1.2"
         x="59.468685"
         y="142.22252">$-[1]=5</tspan></text><text
       xml:space="preserve"
       style="font-weight:bold;font-size:2.82222px;font-family:P052;-inkscape-font-specification:'P052 Bold';fill:#000000;fill-opacity:1;stroke:none;stroke-width:1.2;stroke-linecap:round;stroke-linejoin:round;stroke-dasharray:3.6, 3.6"
       x="70.818703"
       y="148.32103"
       id="text32"><tspan
         sodipodi:role="line"
         id="tspan32"
         style="font-size:2.82222px;fill:#000000;fill-opacity:1;stroke-width:1.2"
         x="70.818703"
         y="148.32103">$+[1]=10</tspan></text><text
       xml:space="preserve"
       style="font-weight:bold;font-size:2.82222px;font-family:P052;-inkscape-font-specification:'P052 Bold';fill:#000080;fill-opacity:1;stroke:none;stroke-width:1.2;stroke-linecap:round;stroke-linejoin:round;stroke-dasharray:3.6, 3.6"
       x="76.961082"
       y="142.22252"
       id="text33"><tspan
         sodipodi:role="line"
         id="tspan33"
         style="font-size:2.82222px;fill:#000080;fill-opacity:1;stroke-width:1.2"
         x="76.961082"
         y="142.22252">$-[2]=12</tspan></text><text
       xml:space="preserve"
       style="font-weight:bold;font-size:2.82222px;font-family:P052;-inkscape-font-specification:'P052 Bold';fill:#000000;fill-opacity:1;stroke:none;stroke-width:1.2;stroke-linecap:round;stroke-linejoin:round;stroke-dasharray:3.6, 3.6"
       x="89.833427"
       y="148.32103"
       id="text34"><tspan
         sodipodi:role="line"
         id="tspan34"
         style="font-size:2.82222px;fill:#000000;fill-opacity:1;stroke-width:1.2"
         x="89.833427"
         y="148.32103">$+[2]=17</tspan></text><path
       style="fill:#000000;fill-opacity:1;stroke:#1f7223;stroke-width:0.3;stroke-linecap:round;stroke-linejoin:round;stroke-dasharray:none;stroke-dashoffset:0;stroke-opacity:1;marker-end:url(#Triangle)"
       d="m 63.730226,139.17556 0.130961,-6.33055"
       id="path34"
       sodipodi:nodetypes="cc" /><path
       style="fill:#000000;fill-opacity:1;stroke:#000000;stroke-width:0.3;stroke-linecap:round;stroke-linejoin:round;stroke-dasharray:none;stroke-dashoffset:0;stroke-opacity:1;marker-end:url(#Triangle)"
       d="m 76.158994,145.20007 0.130961,-15.11375"
       id="path35"
       sodipodi:nodetypes="cc" /><path
       style="fill:#000000;fill-opacity:1;stroke:#000080;stroke-width:0.3;stroke-linecap:round;stroke-linejoin:round;stroke-dasharray:none;stroke-dashoffset:0;stroke-opacity:1;marker-end:url(#Triangle)"
       d="m 81.398588,139.42965 0.130961,-6.58464"
       id="path36"
       sodipodi:nodetypes="cc" /><path
       style="fill:#000000;fill-opacity:1;stroke:#000000;stroke-width:0.3;stroke-linecap:round;stroke-linejoin:round;stroke-dasharray:none;stroke-dashoffset:0;stroke-opacity:1;marker-end:url(#Triangle)"
       d="m 95.208997,145.20007 0.130961,-15.11375"
       id="path37"
       sodipodi:nodetypes="cc" /><g
       id="g39"
       transform="translate(1.3189774,3.3709323)"><rect
         style="fill:#dfdfdf;fill-opacity:1;stroke:none;stroke-width:1.09414;stroke-linecap:round;stroke-linejoin:round;stroke-dasharray:3.28243, 3.28243"
         id="rect39"
         width="90"
         height="12.309643"
         x="36.552937"
         y="79.574677"
         ry="2.2419488" /><text
         xml:space="preserve"
         style="font-weight:bold;font-size:5.64444px;font-family:P052;-inkscape-font-specification:'P052 Bold';fill:#080883;fill-opacity:1;stroke:none;stroke-width:0.3;stroke-linecap:round;stroke-linejoin:round;stroke-dasharray:none;stroke-dashoffset:0;stroke-opacity:1"
         x="44.737076"
         y="87.888588"
         id="text39"><tspan
           sodipodi:role="line"
           id="tspan39"
           style="font-style:normal;font-variant:normal;font-weight:bold;font-stretch:normal;font-size:5.64444px;font-family:P052;-inkscape-font-specification:'P052 Bold';fill:#000000;stroke:none;stroke-width:0.3"
           x="44.737076"
           y="87.888588">Perl 匹配相关的内置特殊变量</tspan></text></g><g
       inkscape:label="Layer 1"
       id="layer1-3"
       transform="matrix(0.07786903,0,0,0.07786903,116.39364,146.79434)"><path
         inkscape:connector-curvature="0"
         style="fill:#aab2ab"
         d="M 3.6365939,-2.3243849 124.54666,-2.1090951 c 1.68942,0 3.19871,-0.2510089 3.19871,3.3707182 L 127.59734,41.079306 H 0.58487915 V 1.1136061 c 0,-1.78549978 0.17287938,-3.437991 3.05171475,-3.437991 z"
         nodetypes="ccccccc"
         id="path3817_4_" /><path
         inkscape:connector-curvature="0"
         id="path364"
         d="M 125.60358,-2.8000002 H 2.397489 c -1.3219246,0 -2.397478279808,1.0754421 -2.397478279808,2.39670994 V 41.459179 C 1.0720192e-5,41.7578 0.24224748,42 0.54140756,42 H 127.45862 c 0.29918,0 0.54139,-0.242211 0.54139,-0.540821 V -0.40329026 c 0,-1.32126784 -1.07555,-2.39670994 -2.39643,-2.39670994 z M 2.397489,-1.717319 H 125.60358 c 0.72463,0 1.31365,0.5894714 1.31365,1.31402874 0,0 0,16.84321426 0,29.02861326 H 38.857567 C 35.629878,34.460544 29.410513,38.4228 22.273984,38.4228 15.135378,38.4228 8.918091,34.464169 5.6924687,28.625323 H 1.082815 c 0,-12.185389 0,-29.02861326 0,-29.02861326 C 1.0828044,-1.1278371 1.6728564,-1.717319 2.397489,-1.717319 Z" /><g
         transform="matrix(0.92531747,0,0,0.92522147,-413.12702,148.99499)"
         id="g5908_4_"><path
           inkscape:connector-curvature="0"
           style="fill:#ffffff"
           d="m 486.26709,-141.53052 c 0.006,8.68024 -7.02789,15.72095 -15.70807,15.72711 -8.68024,0.005 -15.7215,-7.02783 -15.72711,-15.70807 0,-0.007 0,-0.0129 0,-0.019 -0.006,-8.68134 7.02783,-15.72205 15.70807,-15.72711 8.68134,-0.005 15.72266,7.02789 15.72711,15.70813 0,0.006 0,0.0123 0,0.019 z"
           rx="22.939548"
           type="arc"
           cy="264.3577"
           ry="22.939548"
           cx="296.35416"
           id="path5906_4_" /><g
           transform="translate(-289.6157,99.0653)"
           id="g5706_4_"><path
             inkscape:connector-curvature="0"
             d="m 772.94281,-253.39801 c 3.4848,3.48541 5.22778,7.75336 5.22778,12.80219 0,5.04938 -1.71277,9.27148 -5.13831,12.66797 -3.63586,3.57599 -7.93182,5.36371 -12.89001,5.36371 -4.89777,0 -9.11987,-1.77258 -12.664,-5.31952 -3.54639,-3.54584 -5.31842,-7.78302 -5.31842,-12.71216 0,-4.92853 1.77203,-9.19592 5.31842,-12.80219 3.45465,-3.48706 7.6767,-5.22949 12.664,-5.22949 5.04883,0 9.31458,1.74243 12.80054,5.22949 z m -23.11859,2.3443 c -2.94672,2.97638 -4.4201,6.46289 -4.4201,10.4624 0,3.99829 1.45886,7.4552 4.37427,10.37115 2.91766,2.91595 6.38904,4.37421 10.4176,4.37421 4.02856,0 7.53015,-1.47278 10.50708,-4.41895 2.82593,-2.73584 4.23889,-6.17706 4.23889,-10.32642 0,-4.11804 -1.43646,-7.61353 -4.30823,-10.48474 -2.87067,-2.87067 -6.34991,-4.30658 -10.43774,-4.30658 -4.08783,0 -7.54694,1.44319 -10.37177,4.32893 z m 7.7539,8.70319 c -0.44971,-0.98169 -1.12317,-1.47229 -2.02264,-1.47229 -1.58856,0 -2.38287,1.06952 -2.38287,3.20856 0,2.13953 0.79431,3.2085 2.38287,3.2085 1.04938,0 1.79895,-0.52075 2.24866,-1.56451 l 2.20276,1.17297 c -1.05048,1.86548 -2.62567,2.79907 -4.72552,2.79907 -1.61987,0 -2.9176,-0.49677 -3.89203,-1.48962 -0.97552,-0.99341 -1.46332,-2.36273 -1.46332,-4.10797 0,-1.71558 0.50342,-3.07703 1.50806,-4.08557 1.00464,-1.00854 2.25763,-1.51196 3.75781,-1.51196 2.2207,0 3.80927,0.87427 4.77136,2.62231 z m 10.36396,0 c -0.45087,-0.98169 -1.11206,-1.47229 -1.98242,-1.47229 -1.62103,0 -2.43213,1.06952 -2.43213,3.20856 0,2.13953 0.8111,3.2085 2.43213,3.2085 1.05164,0 1.78772,-0.52075 2.20728,-1.56451 l 2.25201,1.17297 c -1.04828,1.86548 -2.62122,2.79907 -4.71771,2.79907 -1.61768,0 -2.91205,-0.49677 -3.88647,-1.48962 -0.97217,-0.99341 -1.4599,-2.36273 -1.4599,-4.10797 0,-1.71558 0.49445,-3.07703 1.4834,-4.08557 0.98785,-1.00854 2.2453,-1.51196 3.7735,-1.51196 2.21619,0 3.80365,0.87427 4.76129,2.62231 z"
             id="path5708_4_" /></g></g><g
         id="g370"
         enable-background="new    "
         transform="matrix(1.0600244,0,0,1.0599143,-466.26112,-2.8000002)"><path
           inkscape:connector-curvature="0"
           style="fill:#ffffff"
           id="path372"
           d="m 488.25342,32.95605 c 0.31738,0 0.6084,0.02832 0.87012,0.08398 0.26172,0.05566 0.48535,0.14746 0.67285,0.27539 0.18652,0.12695 0.33105,0.29688 0.43457,0.50781 0.10254,0.21191 0.1543,0.47266 0.1543,0.78418 0,0.33594 -0.0762,0.61523 -0.22949,0.83887 -0.15234,0.22461 -0.37793,0.40723 -0.67773,0.55078 0.41211,0.11816 0.71973,0.3252 0.92285,0.62109 0.20312,0.29589 0.30469,0.65234 0.30469,1.06934 0,0.33594 -0.0654,0.62695 -0.19629,0.87305 -0.13086,0.24512 -0.30762,0.44629 -0.52832,0.60156 -0.22168,0.15625 -0.47461,0.27148 -0.75781,0.3457 -0.28418,0.0752 -0.5752,0.1123 -0.875,0.1123 h -3.23633 v -6.66406 h 3.14159 z m -0.18653,2.69532 c 0.26074,0 0.47656,-0.0625 0.64453,-0.18652 0.16797,-0.12402 0.25195,-0.3252 0.25195,-0.60449 0,-0.15527 -0.0283,-0.2832 -0.084,-0.38184 -0.0566,-0.09961 -0.13086,-0.17676 -0.22461,-0.2334 -0.0937,-0.05566 -0.20117,-0.09473 -0.32227,-0.11621 -0.1211,-0.02148 -0.24805,-0.03223 -0.37891,-0.03223 h -1.37305 v 1.55469 h 1.48634 z m 0.085,2.82812 c 0.14355,0 0.28027,-0.01367 0.41113,-0.04199 0.13086,-0.02832 0.24609,-0.0752 0.34668,-0.13965 0.0996,-0.06543 0.17871,-0.1543 0.23828,-0.2666 0.0596,-0.11133 0.0889,-0.25488 0.0889,-0.42871 0,-0.3418 -0.0967,-0.58594 -0.29004,-0.73242 -0.19336,-0.14551 -0.44824,-0.21875 -0.7666,-0.21875 h -1.59961 v 1.82812 h 1.57129 z" /><path
           inkscape:connector-curvature="0"
           style="fill:#ffffff"
           id="path374"
           d="m 490.96436,32.95605 h 1.64355 l 1.56055,2.63184 1.55078,-2.63184 h 1.63379 l -2.47363,4.10645 v 2.55762 h -1.46875 v -2.59473 z" /></g><g
         id="g376"
         enable-background="new    "
         transform="matrix(1.0600244,0,0,1.0599143,-466.26112,-2.8000002)"><path
           inkscape:connector-curvature="0"
           style="fill:#ffffff"
           id="path378"
           d="m 512.83057,32.95605 2.78418,4.4707 h 0.0156 v -4.4707 h 1.375 v 6.66406 h -1.46582 l -2.77344,-4.46191 h -0.0186 v 4.46191 h -1.375 v -6.66406 h 1.45801 z" /><path
           inkscape:connector-curvature="0"
           style="fill:#ffffff"
           id="path380"
           d="m 522.56885,34.73145 c -0.0869,-0.14062 -0.19629,-0.26367 -0.32715,-0.36914 -0.13086,-0.10547 -0.27832,-0.18848 -0.44336,-0.24707 -0.16504,-0.05957 -0.33789,-0.08887 -0.51758,-0.08887 -0.33008,0 -0.61035,0.06348 -0.84082,0.19141 -0.23047,0.12695 -0.41699,0.29785 -0.55957,0.5127 -0.14355,0.21484 -0.24805,0.45898 -0.31348,0.73242 -0.0654,0.27344 -0.0977,0.55664 -0.0977,0.84863 0,0.28027 0.0322,0.55273 0.0977,0.81641 0.0654,0.26465 0.16992,0.50293 0.31348,0.71387 0.14258,0.21191 0.3291,0.38086 0.55957,0.50879 0.23047,0.12793 0.51074,0.19141 0.84082,0.19141 0.44727,0 0.79785,-0.13672 1.0498,-0.41113 0.25195,-0.27344 0.40625,-0.63477 0.46191,-1.08301 h 1.41895 c -0.0371,0.41699 -0.13379,0.79395 -0.28906,1.12988 -0.15527,0.33691 -0.36133,0.62305 -0.61621,0.86035 -0.25488,0.2373 -0.55371,0.41797 -0.89648,0.54297 -0.3418,0.125 -0.71875,0.1875 -1.12891,0.1875 -0.51074,0 -0.96973,-0.08887 -1.37793,-0.2666 -0.40723,-0.17676 -0.75195,-0.42188 -1.03223,-0.73242 -0.28125,-0.31152 -0.49609,-0.67773 -0.64551,-1.09766 -0.14941,-0.4209 -0.22461,-0.87305 -0.22461,-1.35938 0,-0.49805 0.0752,-0.95996 0.22461,-1.38672 0.14941,-0.42676 0.36426,-0.79883 0.64551,-1.11621 0.28027,-0.31738 0.625,-0.56641 1.03223,-0.74707 0.4082,-0.18066 0.86719,-0.27051 1.37793,-0.27051 0.36719,0 0.71387,0.05273 1.04102,0.15918 0.32617,0.10547 0.61914,0.25977 0.87695,0.46289 0.25879,0.20215 0.47168,0.45312 0.63965,0.75195 0.16797,0.29883 0.27344,0.6416 0.31738,1.02734 h -1.41895 c -0.0244,-0.16797 -0.0811,-0.32227 -0.16796,-0.46191 z" /></g><g
         id="g382"
         enable-background="new    "
         transform="matrix(1.0600244,0,0,1.0599143,-466.26112,-2.8000002)"><path
           inkscape:connector-curvature="0"
           style="fill:#ffffff"
           id="path384"
           d="m 538.83057,32.95605 2.78418,4.4707 h 0.0156 v -4.4707 h 1.375 v 6.66406 h -1.46582 l -2.77344,-4.46191 h -0.0186 v 4.46191 h -1.375 v -6.66406 h 1.45801 z" /><path
           inkscape:connector-curvature="0"
           style="fill:#ffffff"
           id="path386"
           d="m 547.16748,32.95605 c 0.43066,0 0.83008,0.06836 1.20117,0.20508 0.37109,0.13672 0.69141,0.34277 0.96289,0.61621 0.27051,0.27344 0.48242,0.61621 0.63477,1.02637 0.15332,0.41113 0.22949,0.89355 0.22949,1.44727 0,0.48535 -0.0625,0.93262 -0.18652,1.34375 -0.125,0.41016 -0.31348,0.76562 -0.56543,1.06348 -0.25293,0.29883 -0.56738,0.53418 -0.94434,0.70508 -0.37696,0.1709 -0.82031,0.25684 -1.33203,0.25684 h -2.87793 v -6.66406 h 2.87793 z m -0.10254,5.42969 c 0.21191,0 0.41699,-0.03418 0.61621,-0.10254 0.19922,-0.06836 0.37695,-0.18164 0.53223,-0.34082 0.15527,-0.1582 0.28027,-0.36426 0.37402,-0.61914 0.0928,-0.25488 0.13965,-0.56641 0.13965,-0.93262 0,-0.33594 -0.0322,-0.63867 -0.0977,-0.90918 -0.0654,-0.27051 -0.17285,-0.50195 -0.32227,-0.69434 -0.14942,-0.19239 -0.34668,-0.34082 -0.59277,-0.44336 -0.24609,-0.10254 -0.5498,-0.15332 -0.91016,-0.15332 h -1.0459 v 4.19531 h 1.30665 v 10e-6 z" /></g><g
         transform="matrix(0.66250989,0,0,0.66244109,-134.63134,333.1216)"
         id="g6394_1_"><path
           inkscape:connector-curvature="0"
           style="fill:#ffffff"
           d="m 387.83435,-482.97366 c 0.008,9.41101 -7.61725,17.047 -17.02826,17.05481 -9.4126,0.005 -17.04858,-7.61804 -17.05487,-17.03137 0,-0.007 0,-0.0164 0,-0.0234 -0.006,-9.4118 7.61725,-17.04779 17.02985,-17.05487 9.41101,-0.008 17.047,7.61725 17.05328,17.02905 0,0.009 0,0.0164 0,0.0258 z"
           rx="29.209877"
           type="arc"
           cy="252.08646"
           ry="29.209877"
           cx="475.97119"
           id="path6396_1_" /><g
           transform="translate(-23.9521,-87.92102)"
           id="g6398_1_"><path
             inkscape:connector-curvature="0"
             d="m 394.47845,-413.72311 c -5.17194,0 -9.55005,1.8031 -13.13293,5.41333 -3.67657,3.73358 -5.5141,8.15161 -5.5141,13.25714 0,5.10315 1.83752,9.48993 5.5141,13.1618 3.67505,3.67188 8.05475,5.50787 13.13293,5.50787 5.14069,0 9.5954,-1.85236 13.36572,-5.55316 3.55005,-3.51721 5.32819,-7.88995 5.32819,-13.11652 0,-5.22974 -1.8078,-9.64697 -5.42194,-13.25714 -3.61407,-3.61022 -8.03912,-5.41332 -13.27197,-5.41332 z m 0.0453,3.35858 c 4.23749,0 7.836,1.49457 10.79694,4.48285 2.99066,2.95551 4.48444,6.56415 4.48444,10.82904 0,4.29376 -1.46252,7.85626 -4.39069,10.68756 -3.08594,3.05005 -6.7157,4.57269 -10.89069,4.57269 -4.17505,0 -7.7735,-1.50781 -10.79541,-4.5274 -3.02191,-3.01721 -4.53284,-6.59613 -4.53284,-10.73285 0,-4.14069 1.52655,-7.74933 4.58124,-10.82904 2.92817,-2.98828 6.50946,-4.48285 10.74701,-4.48285 z"
             id="path6400_1_" /><g
             id="g6402_1_"><path
               inkscape:connector-curvature="0"
               d="m 401.55505,-399.47849 h -13.57037 v 3.2149 h 13.57037 z m 0,6.00086 h -13.57037 v 3.21405 h 13.57037 z"
               id="path6404_1_" /></g></g></g><g
         id="g398"
         transform="matrix(1.0600244,0,0,1.0599143,-466.26112,-2.8000002)"><circle
           style="fill:#ffffff"
           id="circle400"
           r="10.80615"
           cy="15.31396"
           cx="491.9473" /><g
           id="g402"><path
             inkscape:connector-curvature="0"
             id="path404"
             d="m 495.07474,12.18701 c 0,-0.4165 -0.33789,-0.75342 -0.75391,-0.75342 h -4.77246 c -0.41602,0 -0.75391,0.33691 -0.75391,0.75342 v 4.77295 h 1.33105 v 5.65234 h 3.61719 v -5.65234 h 1.33203 v -4.77295 z" /><circle
             id="circle406"
             r="1.63232"
             cy="9.1723604"
             cx="491.9346" /></g><path
           inkscape:connector-curvature="0"
           style="fill-rule:evenodd"
           id="path408"
           d="m 491.91946,3.40771 c -3.23145,0 -5.96777,1.12744 -8.20703,3.38379 -2.29785,2.33301 -3.44629,5.09521 -3.44629,8.28418 0,3.18897 1.14844,5.93213 3.44629,8.22705 2.29785,2.29443 5.03418,3.44189 8.20703,3.44189 3.21289,0 5.99805,-1.15674 8.35449,-3.47168 2.21973,-2.19678 3.3291,-4.92969 3.3291,-8.19727 0,-3.26758 -1.12891,-6.02832 -3.3877,-8.28418 -2.25878,-2.25633 -5.02342,-3.38378 -8.29589,-3.38378 z m 0.0303,2.09961 c 2.64844,0 4.89648,0.93359 6.74609,2.80078 1.87012,1.84717 2.80469,4.10352 2.80469,6.76758 0,2.68359 -0.91504,4.91113 -2.74609,6.68066 -1.92773,1.90576 -4.19629,2.8584 -6.80469,2.8584 -2.61035,0 -4.85938,-0.94287 -6.74805,-2.8291 -1.88867,-1.88672 -2.83301,-4.12305 -2.83301,-6.70996 0,-2.58643 0.9541,-4.84229 2.8623,-6.76758 1.83106,-1.86718 4.07032,-2.80078 6.71876,-2.80078 z"
           clip-rule="evenodd" /></g><g
         id="g2366"
         transform="matrix(1.0666667,0,0,1.0666667,-7.1467954e-7,-2.8000002)"><path
           inkscape:connector-curvature="0"
           id="path6372_1_"
           cx="475.97119"
           ry="29.209877"
           cy="252.08646"
           type="arc"
           rx="29.209877"
           d="m 87.801399,14.981221 c 0.0048,5.500587 -4.451603,9.961917 -9.953251,9.966304 -5.500714,0.0034 -9.962985,-4.45211 -9.966848,-9.951763 0,-0.0058 0,-0.01019 0,-0.01454 -0.0039,-5.5010765 4.452572,-9.9624055 9.953251,-9.9667814 5.50068,-0.00341 9.96295,4.4521099 9.966848,9.9517284 0,0.0049 0,0.01019 0,0.01505 z"
           style="fill:#ffffff" /><path
           inkscape:connector-curvature="0"
           id="path45"
           d="m 86.070369,6.7455646 c -2.24512,-2.242292 -4.99278,-3.362732 -8.24368,-3.362732 -3.21268,0 -5.93132,1.12044 -8.15662,3.362732 -2.28405,2.319442 -3.42502,5.0635624 -3.42502,8.2337704 0,3.169502 1.14097,5.89522 3.42502,8.175023 2.28334,2.28122 5.00198,3.421479 8.15662,3.421479 3.19286,0 5.96033,-1.150166 8.30171,-3.449789 2.2062,-2.184252 3.30965,-4.900058 3.30965,-8.146713 0,-3.247361 -1.12256,-5.9921884 -3.36768,-8.2337704 z m -1.45169,14.8728804 c -1.916,1.894056 -4.17032,2.840378 -6.76297,2.840378 -2.59336,0 -4.82858,-0.93712 -6.70565,-2.812068 -1.87707,-1.874948 -2.8156,-4.097421 -2.8156,-6.667423 0,-1.087172 0.17164,-2.114891 0.51103,-3.083862 l 3.07288,1.360027 h -0.22154 v 1.378074 h 1.08753 c 0,0.194644 -0.01946,0.388581 -0.01946,0.582514 v 0.33054 h -1.06807 v 1.378074 h 1.262 c 0.17482,1.029132 0.56305,1.863623 1.08717,2.523993 1.08717,1.436821 2.83436,2.213272 4.73692,2.213272 1.24288,0 2.36828,-0.368761 3.02865,-0.738229 l -0.46644,-2.154525 c -0.40769,0.213752 -1.31933,0.504658 -2.21257,0.504658 -0.97109,0 -1.88308,-0.290902 -2.50452,-0.990204 -0.29126,-0.329833 -0.50466,-0.776451 -0.6402,-1.358965 h 4.22057 l 5.99714,2.654584 c -0.41547,0.736114 -0.94277,1.416303 -1.58687,2.039162 z m -7.54225,-6.071813 -0.02548,-0.01946 0.04388,0.01946 z m 3.61045,-0.913054 h 0.17342 v -1.378074 h -3.287 l -1.33525,-0.591008 c 0.11501,-0.258345 0.25091,-0.489441 0.40945,-0.670281 0.60198,-0.738937 1.45594,-1.048951 2.3881,-1.048951 0.85431,0 1.64987,0.251974 2.15453,0.46573 l 0.54358,-2.2132724 c -0.6993,-0.310015 -1.72773,-0.581808 -2.91187,-0.581808 -1.82469,0 -3.37794,0.737523 -4.48458,1.9797014 -0.2456,0.283824 -0.45865,0.602333 -0.65188,0.939244 l -3.8136,-1.6877374 c 0.36947,-0.554204 0.80406,-1.086465 1.3073,-1.593953 1.81974,-1.855836 4.04434,-2.783755 6.67662,-2.783755 2.63158,0 4.8668,0.927919 6.70565,2.783755 1.85725,1.8360194 2.78588,4.0776014 2.78588,6.7261704 0,0.872709 -0.0991,1.695876 -0.29445,2.471617 z" /></g><g
         id="g3059"
         transform="matrix(1.0600244,0,0,1.0599143,-513.78732,-19.830222)"><path
           inkscape:connector-curvature="0"
           id="path3061"
           d="m 495.07474,12.18701 c 0,-0.4165 -0.33789,-0.75342 -0.75391,-0.75342 h -4.77246 c -0.41602,0 -0.75391,0.33691 -0.75391,0.75342 v 4.77295 h 1.33105 v 5.65234 h 3.61719 v -5.65234 h 1.33203 v -4.77295 z" /><circle
           id="circle3063"
           r="1.63232"
           cy="9.1723604"
           cx="491.9346" /></g><g
         style="font-style:normal;font-variant:normal;font-weight:bold;font-stretch:normal;font-size:9.6px;line-height:125%;font-family:'Courier 10 Pitch';-inkscape-font-specification:'Courier 10 Pitch Bold';letter-spacing:0px;word-spacing:0px;fill:#000000;fill-opacity:1;stroke:none"
         id="text3024"><path
           d="m 24.195577,-7.1724957 c 0,-0.6815993 -0.0672,-1.0752003 -0.2496,-1.4016 -0.3744,-0.6623994 -1.152001,-1.0656001 -2.073601,-1.0656001 -1.478398,0 -2.5248,1.0272015 -2.5248,2.4768001 0,1.4591986 1.094402,2.5152001 2.6112,2.5152001 0.7296,0 1.392001,-0.2592004 1.814401,-0.72 0.182399,-0.1919998 0.2976,-0.3456004 0.5376,-0.7392 l -0.8064,-0.3936 c -0.3744,0.5567994 -0.768001,0.816 -1.257601,0.816 -0.748799,0 -1.1712,-0.547201 -1.1616,-1.4880001 h 3.110401 m -3.052801,-0.7392 c 0.0288,-0.5279995 0.288001,-0.8448 0.72,-0.8448 0.432,0 0.614401,0.2400006 0.6336,0.8448 h -1.3536"
           style="font-family:'URW Bookman L';-inkscape-font-specification:'URW Bookman L Bold'"
           id="path3018"
           inkscape:connector-curvature="0" /><path
           d="m 29.764327,-7.1724957 c 0,-0.6815993 -0.0672,-1.0752003 -0.2496,-1.4016 -0.3744,-0.6623994 -1.152001,-1.0656001 -2.0736,-1.0656001 -1.478399,0 -2.5248,1.0272015 -2.5248,2.4768001 0,1.4591986 1.094401,2.5152001 2.6112,2.5152001 0.729599,0 1.392,-0.2592004 1.8144,-0.72 0.1824,-0.1919998 0.2976,-0.3456004 0.5376,-0.7392 l -0.8064,-0.3936 c -0.3744,0.5567994 -0.768001,0.816 -1.2576,0.816 -0.748799,0 -1.1712,-0.547201 -1.1616,-1.4880001 h 3.1104 m -3.0528,-0.7392 c 0.0288,-0.5279995 0.288,-0.8448 0.72,-0.8448 0.431999,0 0.6144,0.2400006 0.6336,0.8448 h -1.3536"
           style="font-family:'URW Bookman L';-inkscape-font-specification:'URW Bookman L Bold'"
           id="path3020"
           inkscape:connector-curvature="0" /><path
           d="m 35.793877,-9.5532958 h -2.304 v 0.7776001 c 0.2304,0.0192 0.3168,0.0576 0.3168,0.1344 0,0.0768 -0.0384,0.1440001 -0.144,0.24 l -0.4128,0.3936 -0.3072,-0.4032 c -0.0672,-0.0864 -0.096,-0.1440001 -0.096,-0.1824 0,-0.1055999 0.1344,-0.1632001 0.384,-0.1824 v -0.7776001 h -2.7648 v 0.7776001 c 0.5952,0.0768 0.777601,0.2016005 1.1328,0.7392 l 0.5952,0.8064 -0.6912,0.7488001 c -0.403199,0.4319995 -0.6432,0.6816 -0.7008,0.7296 -0.1824,0.1247999 -0.2688,0.1632001 -0.5376,0.24 v 0.7776 h 2.352 v -0.7776 c -0.326399,-0.0288 -0.4896,-0.096 -0.4896,-0.2112 0,-0.0768 0.0288,-0.1344002 0.1536,-0.2688 l 0.4608,-0.5184 0.384,0.5184 c 0.096,0.1247999 0.144,0.2304 0.144,0.288 0,0.0864 -0.096,0.1344001 -0.384,0.192 v 0.7776 h 2.976 v -0.7776 c -0.671999,-0.1439999 -0.8832,-0.2592005 -1.2384,-0.7104 l -0.8928,-1.1520001 0.576,-0.5088 c 0.0192,-0.0192 0.0768,-0.0672 0.144,-0.1248 0.5952,-0.5375995 0.806401,-0.6528001 1.344,-0.768 v -0.7776001"
           style="font-family:'URW Bookman L';-inkscape-font-specification:'URW Bookman L Bold'"
           id="path3022"
           inkscape:connector-curvature="0" /><path
           d="m 38.247728,-9.5532958 h -0.5952 l -1.4976,0.2784 v 0.7776001 l 0.1728,0.0192 c 0.422399,0.048 0.528,0.2016006 0.528,0.7872 v 3.4272001 c 0,0.5471995 -0.0576,0.6432002 -0.4224,0.7296001 l -0.2784,0.0672 v 0.7776 h 2.9568 v -0.7776 l -0.2784,-0.0672 c -0.3648,-0.0864 -0.4224,-0.1824006 -0.4224,-0.7296001 v -0.6528 l 0.1056,0.0384 c 0.460799,0.1823998 0.7008,0.2304 1.0464,0.2304 1.295998,0 2.2464,-1.0944015 2.2464,-2.5728001 0,-1.3631987 -0.998402,-2.4192001 -2.2752,-2.4192001 -0.4128,0 -0.681601,0.0768 -1.2864,0.3648 v -0.2784 m 0.1632,1.2384001 c 0.211199,-0.2399998 0.5376,-0.3936 0.8352,-0.3936 0.575999,0 0.9312,0.5664009 0.9312,1.4592 0,1.027199 -0.374401,1.6224001 -1.0272,1.6224001 -0.2496,0 -0.547201,-0.1248002 -0.7392,-0.2976 v -2.3904001"
           style="font-family:'URW Bookman L';-inkscape-font-specification:'URW Bookman L Bold'"
           id="path3024"
           inkscape:connector-curvature="0" /><path
           d="m 44.397727,-9.5532958 h -0.5952 l -1.4976,0.2784 v 0.7776001 l 0.1728,0.0192 c 0.4224,0.048 0.528,0.2016006 0.528,0.7872 v 1.3824001 c 0,0.5471994 -0.0576,0.6432001 -0.4224,0.7296 l -0.2784,0.0672 v 0.7776 h 2.9568 v -0.7776 l -0.2784,-0.0672 c -0.364799,-0.0864 -0.4224,-0.1824006 -0.4224,-0.7296 v -1.8624001 c 0.1344,-0.1151999 0.2304,-0.1536 0.384,-0.1536 0.1152,0 0.1152,10e-8 0.336,0.144 0.1728,0.1151999 0.3072,0.1536 0.4896,0.1536 0.432,0 0.7584,-0.3072004 0.7584,-0.7296 0,-0.4991996 -0.3744,-0.8832001 -0.864,-0.8832001 -0.393599,0 -0.6336,0.1056005 -1.2672,0.5568001 v -0.4704001"
           style="font-family:'URW Bookman L';-inkscape-font-specification:'URW Bookman L Bold'"
           id="path3026"
           inkscape:connector-curvature="0" /><path
           d="m 51.664328,-7.1724957 c 0,-0.6815993 -0.0672,-1.0752003 -0.2496,-1.4016 -0.374399,-0.6623994 -1.152001,-1.0656001 -2.0736,-1.0656001 -1.478398,0 -2.5248,1.0272015 -2.5248,2.4768001 0,1.4591986 1.094402,2.5152001 2.6112,2.5152001 0.7296,0 1.392001,-0.2592004 1.8144,-0.72 0.1824,-0.1919998 0.297601,-0.3456004 0.5376,-0.7392 l -0.8064,-0.3936 c -0.374399,0.5567994 -0.768,0.816 -1.2576,0.816 -0.748799,0 -1.1712,-0.547201 -1.1616,-1.4880001 h 3.1104 m -3.0528,-0.7392 c 0.0288,-0.5279995 0.288001,-0.8448 0.72,-0.8448 0.432,0 0.6144,0.2400006 0.6336,0.8448 h -1.3536"
           style="font-family:'URW Bookman L';-inkscape-font-specification:'URW Bookman L Bold'"
           id="path3028"
           inkscape:connector-curvature="0" /><path
           d="m 56.282679,-9.5532958 h -0.6048 l -0.1152,0.2304 c -0.4992,-0.2399997 -0.787201,-0.3168 -1.2288,-0.3168 -1.132799,0 -1.9584,0.700801 -1.9584,1.6704001 0,0.7871992 0.537601,1.2864002 1.536,1.4208001 l 0.6144,0.0768 c 0.595199,0.0864 0.8448,0.2112002 0.8448,0.4416 0,0.2207998 -0.364801,0.4032 -0.8352,0.4032 -0.384,0 -0.796801,-0.1440003 -1.0656,-0.384 -0.1152,-0.096 -0.192001,-0.1920003 -0.432,-0.4608 l -0.7392,0.1536 0.384,1.6224 h 0.6336 l 0.1152,-0.24 c 0.489599,0.2207998 0.8064,0.288 1.2576,0.288 1.190399,0 2.1216,-0.758401 2.1216,-1.728 0,-0.3743997 -0.1344,-0.7200003 -0.3936,-0.9600001 -0.2592,-0.2591997 -0.460801,-0.3456001 -1.1808,-0.48 l -0.72,-0.1344 c -0.5376,-0.096 -0.7488,-0.2208002 -0.7488,-0.432 0,-0.2111998 0.2784,-0.3744 0.6624,-0.3744 0.489599,0 0.8832,0.2400005 1.248,0.7392 l 0.7872,-0.1152 -0.1824,-1.4208001"
           style="font-family:'URW Bookman L';-inkscape-font-specification:'URW Bookman L Bold'"
           id="path3030"
           inkscape:connector-curvature="0" /><path
           d="m 61.270178,-9.5532958 h -0.6048 l -0.1152,0.2304 c -0.4992,-0.2399997 -0.7872,-0.3168 -1.2288,-0.3168 -1.132799,0 -1.9584,0.700801 -1.9584,1.6704001 0,0.7871992 0.537601,1.2864002 1.536,1.4208001 l 0.6144,0.0768 c 0.595199,0.0864 0.8448,0.2112002 0.8448,0.4416 0,0.2207998 -0.3648,0.4032 -0.8352,0.4032 -0.384,0 -0.7968,-0.1440003 -1.0656,-0.384 -0.1152,-0.096 -0.192,-0.1920003 -0.432,-0.4608 l -0.7392,0.1536 0.384,1.6224 h 0.6336 l 0.1152,-0.24 c 0.489599,0.2207998 0.8064,0.288 1.2576,0.288 1.190399,0 2.1216,-0.758401 2.1216,-1.728 0,-0.3743997 -0.1344,-0.7200003 -0.3936,-0.9600001 -0.2592,-0.2591997 -0.460801,-0.3456001 -1.1808,-0.48 l -0.72,-0.1344 c -0.5376,-0.096 -0.7488,-0.2208002 -0.7488,-0.432 0,-0.2111998 0.2784,-0.3744 0.6624,-0.3744 0.489599,0 0.8832,0.2400005 1.248,0.7392 l 0.7872,-0.1152 -0.1824,-1.4208001"
           style="font-family:'URW Bookman L';-inkscape-font-specification:'URW Bookman L Bold'"
           id="path3032"
           inkscape:connector-curvature="0" /><path
           d="m 66.891277,-9.6588958 -0.048,0.24 c -0.220799,-0.1919998 -0.5376,-0.2976 -0.8544,-0.2976 -1.017599,0 -1.8912,0.9216011 -1.8912,1.9968001 0,0.7871993 0.518401,1.3536001 1.2384,1.3536001 0.4032,0 0.787201,-0.1824004 1.056,-0.4992001 0.0864,0.3263997 0.355201,0.4992001 0.768,0.4992001 0.3072,0 0.720001,-0.1344002 1.0656,-0.3360001 0.7104,-0.4223995 1.1136,-1.1232008 1.1136,-1.9488 0,-0.7487993 -0.3264,-1.4688003 -0.9024,-1.9680003 -0.585599,-0.508799 -1.478401,-0.8352 -2.2848,-0.8352 -0.825599,0 -1.7376,0.336001 -2.3616,0.864 -0.729599,0.6239996 -1.152,1.5456012 -1.152,2.5344003 0,1.9103982 1.555202,3.4464001 3.5136,3.4464001 1.353599,0 2.438401,-0.6624012 3.12,-1.8912 h -0.672 c -0.575999,0.8351992 -1.372801,1.2384 -2.448,1.2384 -1.622398,0 -2.8128,-1.1904017 -2.8128,-2.8032001 0,-1.5743985 1.200002,-2.7360003 2.8128,-2.7360003 1.411199,0 2.4864,0.9792015 2.4864,2.2656003 0,0.5663994 -0.2112,1.0080003 -0.624,1.3056 -0.163199,0.1151999 -0.3072,0.1824 -0.4128,0.1824 -0.1248,0 -0.2304,-0.1152001 -0.2304,-0.2496 0,-0.0864 0,-0.0864 0.048,-0.3264 l 0.3744,-2.0352001 h -0.9024 m -0.2016,0.7008001 c -0.1728,0.8543991 -0.2688,1.1904003 -0.432,1.4592 -0.192,0.3455997 -0.4032,0.5088 -0.6432,0.5088 -0.268799,0 -0.432,-0.2208003 -0.432,-0.576 0,-0.8351992 0.460801,-1.5936 0.9792,-1.5936 0.1536,0 0.3168,0.0576 0.528,0.2016"
           style="font-family:'URW Bookman L';-inkscape-font-specification:'URW Bookman L Bold'"
           id="path3034"
           inkscape:connector-curvature="0" /><path
           d="m 74.161481,-11.271696 h -0.4608 c -0.0576,0.0096 -0.1248,0.0288 -0.1632,0.0384 -0.883199,0.2016 -1.0272,0.2304 -1.44,0.2592 -0.662399,0.0384 -0.6624,0.0384 -0.6912,0.0384 -0.0384,0 -0.0864,0 -0.1536,-0.0096 v 0.7488 l 0.1344,0.0096 c 1.075199,0.0576 1.0944,0.0672 1.0944,0.6912002 v 3.2352002 c 0,0.5759994 -0.096,0.6528001 -0.9792,0.72 l -0.2496,0.0192 v 0.7872 h 4.1376 v -0.7872 l -0.2208,-0.0192 c -0.0192,0 -0.1152,-0.0096 -0.2112,-0.0192 -0.671999,-0.048 -0.7968,-0.1536006 -0.7968,-0.7008 v -5.0112004"
           style="font-family:'URW Bookman L';-inkscape-font-specification:'URW Bookman L Bold'"
           id="path3036"
           inkscape:connector-curvature="0" /><path
           d="m 78.223779,-8.4972957 c 0.0384,-0.4223996 0.0384,-0.4224002 0.0864,-0.6144 0.192,-0.9119993 0.758401,-1.4496003 1.5168,-1.4496003 0.2784,0 0.48,0.0672 0.576,0.192 0.0576,0.0672 0.0672,0.1344 0.0864,0.3456 0.0384,0.3935998 0.3648,0.6624002 0.7872,0.6624002 0.431999,0 0.7776,-0.3264004 0.7776,-0.7392002 0,-0.719999 -1.036801,-1.296 -2.3136,-1.296 -0.835199,0 -1.555201,0.240001 -2.0544,0.6816 -0.7008,0.6144 -1.0848,1.6416015 -1.0848,2.8896003 0,2.083198 1.036802,3.2160001 2.9376,3.2160001 1.699198,0 2.8224,-0.9024014 2.8224,-2.2752001 0,-1.2575988 -0.979202,-2.16 -2.352,-2.16 -0.7008,0 -1.296001,0.1824003 -1.7856,0.5472 m 1.296,0.384 c 0.671999,0 1.0944,0.4992008 1.0944,1.296 0,0.8351992 -0.422401,1.3248001 -1.1424,1.3248001 -0.7104,0 -1.1232,-0.4704008 -1.1232,-1.2768001 0,-0.8255992 0.4512,-1.344 1.1712,-1.344"
           style="font-family:'URW Bookman L';-inkscape-font-specification:'URW Bookman L Bold'"
           id="path3038"
           inkscape:connector-curvature="0" /><path
           d="m 84.90688,-7.8348957 c 0.1632,-0.0096 0.2592,-0.0096 0.3552,-0.0096 0.4896,0 0.873601,0.0768 1.0944,0.2304 0.2592,0.1823998 0.432,0.5568004 0.432,0.9600001 0,0.7199993 -0.4704,1.1616 -1.2288,1.1616 -0.537599,0 -1.0368,-0.2208003 -1.0368,-0.4608 0,-0.0192 0.0096,-0.048 0.0192,-0.0768 0.0768,-0.2015998 0.0768,-0.2112001 0.0768,-0.3264 0,-0.4127996 -0.3648,-0.7296001 -0.8256,-0.7296001 -0.470399,0 -0.8256,0.3840005 -0.8256,0.8832001 0,0.9119991 1.113602,1.5936 2.592,1.5936 0.921599,0 1.795201,-0.2400004 2.3424,-0.6528 0.4608,-0.3359997 0.768,-0.9408006 0.768,-1.4784001 0,-0.7775992 -0.499201,-1.3344002 -1.392,-1.5552 0.6624,-0.2399998 1.0848,-0.7584006 1.0848,-1.3344001 0,-1.0367992 -1.065601,-1.7664002 -2.5728,-1.7664002 -1.497598,0 -2.6112,0.729601 -2.6112,1.7280002 0,0.4991996 0.326401,0.8448001 0.816,0.8448001 0.4704,0 0.8352,-0.3072005 0.8352,-0.7104001 0,-0.1151999 -0.0384,-0.2496001 -0.096,-0.3456 -0.048,-0.096 -0.0672,-0.1344002 -0.0672,-0.1824002 0,-0.2112 0.480001,-0.4512 0.8928,-0.4512 0.5856,0 0.96,0.316801 0.96,0.8064002 0,0.3551997 -0.1824,0.6912002 -0.4512,0.8544001 -0.1728,0.096 -0.5376,0.1632 -0.8928,0.1632 h -0.1056 l -0.1632,-0.0096 v 0.864"
           style="font-family:'URW Bookman L';-inkscape-font-specification:'URW Bookman L Bold'"
           id="path3040"
           inkscape:connector-curvature="0" /><path
           d="m 90.553178,-6.3468956 c -0.48,0 -0.8736,0.3840004 -0.8736,0.8544 0,0.4895995 0.384,0.8832 0.864,0.8832 0.479999,0 0.8736,-0.3936005 0.8736,-0.8736 0,-0.4799995 -0.384001,-0.864 -0.864,-0.864"
           style="font-family:'URW Bookman L';-inkscape-font-specification:'URW Bookman L Bold'"
           id="path3042"
           inkscape:connector-curvature="0" /><path
           d="m 96.714883,-6.5196956 c -0.3456,0.6239994 -0.796801,0.9408 -1.3536,0.9408 -0.6912,0 -1.1424,-0.652801 -1.1424,-1.6512001 0,-0.969599 0.336,-1.5264 0.9216,-1.5264 0.287999,0 0.5472,0.1824002 0.5472,0.384 l -0.0096,0.2784 c 0,0.3359997 0.384,0.6528 0.7968,0.6528 0.451199,0 0.7968,-0.3360004 0.7968,-0.7872 0,-0.7871993 -0.940802,-1.4112001 -2.1312,-1.4112001 -1.593599,0 -2.630401,0.9888016 -2.630401,2.4960001 0,1.4783986 1.046402,2.4960001 2.563201,2.4960001 1.142398,0 2.0352,-0.5472009 2.4192,-1.4688 l -0.7776,-0.4032"
           style="font-family:'URW Bookman L';-inkscape-font-specification:'URW Bookman L Bold'"
           id="path3044"
           inkscape:connector-curvature="0" /><path
           d="m 100.69003,-9.6396958 c -1.555197,0 -2.611199,0.9792015 -2.611199,2.4288001 0,1.5743985 1.027202,2.5632001 2.659199,2.5632001 1.6128,0 2.6592,-0.9696015 2.6592,-2.4672001 0,-1.5455985 -1.056,-2.5248001 -2.7072,-2.5248001 m 0.0576,0.9792001 c 0.6048,0 0.9024,0.528001 0.9024,1.584 0,0.9791991 -0.3168,1.4976001 -0.9024,1.4976001 -0.6048,0 -0.921599,-0.518401 -0.921599,-1.5168001 0,-1.036799 0.307199,-1.5648 0.921599,-1.5648"
           style="font-family:'URW Bookman L';-inkscape-font-specification:'URW Bookman L Bold'"
           id="path3046"
           inkscape:connector-curvature="0" /><path
           d="m 106.23058,-8.2668957 c 0.3648,-0.2399998 0.8064,-0.3936 1.104,-0.3936 0.2976,0 0.4224,0.1728004 0.4224,0.5664 v 1.7856001 c 0,0.5471994 -0.0576,0.6432001 -0.4224,0.7488 l -0.1728,0.048 v 0.7776 h 2.7456 v -0.7776 l -0.1728,-0.048 c -0.3648,-0.1055999 -0.4224,-0.2016006 -0.4224,-0.7488 v -1.9584001 c 0.3072,-0.1919998 0.7488,-0.336 0.9984,-0.336 0.3264,0 0.528,0.2112003 0.528,0.5472 v 1.7472001 c 0,0.5471994 -0.0576,0.6432001 -0.4224,0.7488 l -0.1728,0.048 v 0.7776 h 2.8896 v -0.7776 l -0.3168,-0.0672 c -0.3552,-0.0768 -0.4224,-0.1824006 -0.4224,-0.7296 v -1.8624001 c 0,-0.4799995 -0.0672,-0.7104003 -0.288,-0.9696 -0.2976,-0.3359997 -0.7008,-0.4992001 -1.248,-0.4992001 -0.6336,0 -1.248,0.1728004 -1.7856,0.4992001 -0.3456,-0.3263997 -0.7872,-0.4992001 -1.296,-0.4992001 -0.6432,0 -1.2192,0.1536003 -1.7088,0.4416 v -0.3552 h -0.5952 l -1.536,0.2784 v 0.7776001 l 0.2112,0.0192 c 0.4128,0.0384 0.528,0.2112006 0.528,0.7872 v 1.3824001 c 0,0.5471994 -0.0672,0.6528001 -0.4224,0.7296 l -0.3168,0.0672 v 0.7776 h 2.8896 v -0.7776 l -0.1728,-0.048 c -0.3648,-0.1055999 -0.4224,-0.2016006 -0.4224,-0.7488 v -1.9584001"
           style="font-family:'URW Bookman L';-inkscape-font-specification:'URW Bookman L Bold'"
           id="path3048"
           inkscape:connector-curvature="0" /></g></g></g></svg>
