<?xml version="1.0" encoding="UTF-8" standalone="no"?>
<!-- Created with Inkscape (http://www.inkscape.org/) -->

<svg
   width="348.21082mm"
   height="261.48615mm"
   viewBox="0 0 348.21082 261.48615"
   version="1.1"
   id="svg1"
   inkscape:version="1.3 (0e150ed6c4, 2023-07-21)"
   sodipodi:docname="标题.svg"
   xmlns:inkscape="http://www.inkscape.org/namespaces/inkscape"
   xmlns:sodipodi="http://sodipodi.sourceforge.net/DTD/sodipodi-0.dtd"
   xmlns:xlink="http://www.w3.org/1999/xlink"
   xmlns="http://www.w3.org/2000/svg"
   xmlns:svg="http://www.w3.org/2000/svg">
  <sodipodi:namedview
     id="namedview1"
     pagecolor="#505050"
     bordercolor="#ffffff"
     borderopacity="1"
     inkscape:showpageshadow="false"
     inkscape:pageopacity="0"
     inkscape:pagecheckerboard="true"
     inkscape:deskcolor="#505050"
     inkscape:document-units="mm"
     inkscape:zoom="0.72782688"
     inkscape:cx="647.13191"
     inkscape:cy="548.89426"
     inkscape:window-width="1920"
     inkscape:window-height="1011"
     inkscape:window-x="0"
     inkscape:window-y="0"
     inkscape:window-maximized="1"
     inkscape:current-layer="layer1" />
  <defs
     id="defs1">
    <linearGradient
       id="linearGradient15">
      <stop
         style="stop-color:#2f3ad7;stop-opacity:1;"
         offset="0"
         id="stop17" />
      <stop
         style="stop-color:#2f3ad7;stop-opacity:0.92796737;"
         offset="0.67216331"
         id="stop19" />
      <stop
         style="stop-color:#2f3ad7;stop-opacity:0.30094224;"
         offset="1"
         id="stop18" />
    </linearGradient>
    <linearGradient
       inkscape:collect="always"
       xlink:href="#linearGradient15"
       id="linearGradient16"
       x1="21.227287"
       y1="237.21326"
       x2="241.9382"
       y2="237.21326"
       gradientUnits="userSpaceOnUse"
       gradientTransform="translate(-13.034363,-60.609289)" />
  </defs>
  <g
     inkscape:label="图层 1"
     inkscape:groupmode="layer"
     id="layer1"
     transform="translate(-7.693032,-9.4077911)">
    <path
       id="rect12"
       style="fill:url(#linearGradient16);stroke-width:1.32292;stroke-linecap:round;stroke-linejoin:round"
       d="m 103.90372,151.60411 c -6.989603,0 -13.285693,2.84489 -17.813901,7.43831 -9.779014,9.64028 -25.503092,9.5886 -35.218522,-0.11576 l -5.17e-4,-5.1e-4 c -9.763122,-9.76319 -25.592342,-9.76319 -35.355464,0 -9.7631876,9.76312 -9.7631876,25.59234 0,35.35546 9.763122,9.76319 25.592342,9.76319 35.355464,0 9.71535,-9.70484 25.439824,-9.75675 35.219039,-0.11627 4.528208,4.59343 10.824288,7.43882 17.813901,7.43882 h 227.0001 c 13.84999,0 25.00002,-11.15004 25.00002,-25.00002 0,-13.84999 -11.15003,-25.00003 -25.00002,-25.00003 z"
       sodipodi:nodetypes="scssccccsssss" />
    <circle
       style="fill:none;fill-opacity:0.820974;stroke:#fffcfc;stroke-width:1;stroke-linecap:round;stroke-linejoin:round;stroke-dasharray:3, 3;stroke-dashoffset:0;stroke-opacity:0.579405"
       id="circle15"
       cx="33.192924"
       cy="176.60396"
       r="25" />
    <path
       id="rect3"
       style="fill:#2f3ad7;fill-opacity:0.820974;stroke-width:1.32292;stroke-linecap:round;stroke-linejoin:round"
       d="m 184.5863,99.779162 a 25,25 0 0 1 -35.35537,0 25,25 0 0 1 -1e-5,35.355378 25,25 0 0 1 35.35539,0 25,25 0 0 1 -1e-5,-35.355378 z" />
    <rect
       style="fill:#2f3ad7;fill-opacity:0.820974;stroke-width:1.32292;stroke-linecap:round;stroke-linejoin:round"
       id="rect4"
       width="50"
       height="50"
       x="35.872154"
       y="34.407791"
       ry="2.8391211" />
    <circle
       style="fill:#d72f2f;fill-opacity:0.820974;stroke-width:1.32292;stroke-linecap:round;stroke-linejoin:round"
       id="circle4"
       cx="35.872154"
       cy="34.407791"
       r="25" />
    <circle
       style="fill:#d72f2f;fill-opacity:0.820974;stroke-width:1.32292;stroke-linecap:round;stroke-linejoin:round"
       id="use4"
       cx="85.872154"
       cy="34.407795"
       r="25" />
    <circle
       style="fill:#d72f2f;fill-opacity:0.820974;stroke-width:1.32292;stroke-linecap:round;stroke-linejoin:round"
       id="use5"
       cx="35.872154"
       cy="84.407791"
       r="25" />
    <circle
       style="fill:#d72f2f;fill-opacity:0.820974;stroke-width:1.32292;stroke-linecap:round;stroke-linejoin:round"
       id="use6"
       cx="85.872162"
       cy="84.407791"
       r="25" />
    <path
       id="path6"
       style="fill:#2f3ad7;fill-opacity:0.820974;stroke-width:1.32292;stroke-linecap:round;stroke-linejoin:round"
       d="M 243.292,95.555247 A 25,25 0 0 1 218.29197,120.55527 25,25 0 0 1 243.292,145.5553 25,25 0 0 1 268.29203,120.55527 25,25 0 0 1 243.292,95.555247 Z" />
    <rect
       style="fill:#2f3ad7;fill-opacity:0.820974;stroke-width:1.32292;stroke-linecap:round;stroke-linejoin:round"
       id="rect13"
       width="150"
       height="50"
       x="204.47479"
       y="29.517395"
       ry="25"
       rx="25" />
    <path
       id="path13"
       style="fill:#2f3ad7;fill-opacity:0.820974;stroke-width:1.32292;stroke-linecap:round;stroke-linejoin:round"
       d="m 160.77159,52.509584 c -1.11218,1.11218 -1.11182,2.90327 3.7e-4,4.01546 l 15.66978,15.66977 a 25,25 0 0 1 35.35537,0 l 15.67014,-15.67014 c 1.11218,-1.11218 1.11219,-2.90291 0,-4.01509 l -15.67014,-15.67014 a 25,25 0 0 1 -35.35501,3.7e-4 25,25 0 0 1 -3.7e-4,-3.7e-4 z" />
    <circle
       style="fill:#d72f2f;fill-opacity:0.820974;stroke-width:1.32292;stroke-linecap:round;stroke-linejoin:round"
       id="circle13"
       cx="73.713554"
       cy="150.81282"
       r="25"
       transform="rotate(-45)" />
    <circle
       style="fill:#d72f2f;fill-opacity:0.820974;stroke-width:1.32292;stroke-linecap:round;stroke-linejoin:round"
       id="circle14"
       cx="123.71356"
       cy="200.81282"
       r="25"
       transform="rotate(-45)" />
    <text
       xml:space="preserve"
       style="font-weight:bold;font-size:35.2778px;font-family:P052;-inkscape-font-specification:'P052 Bold';fill:#b7b9de;fill-opacity:0.820974;stroke-width:0.992081;stroke-linecap:round;stroke-linejoin:round"
       x="24.549862"
       y="188.36911"
       id="text14"><tspan
         sodipodi:role="line"
         id="tspan14"
         style="font-size:35.2778px;fill:#b7b9de;fill-opacity:0.820974;stroke-width:0.992081"
         x="24.549862"
         y="188.36911">1</tspan></text>
    <text
       xml:space="preserve"
       style="font-weight:bold;font-size:22.5778px;font-family:P052;-inkscape-font-specification:'P052 Bold';fill:#b7b9de;fill-opacity:0.820974;stroke-width:1.32292;stroke-linecap:round;stroke-linejoin:round"
       x="106.56823"
       y="185.21739"
       id="text15"><tspan
         sodipodi:role="line"
         id="tspan15"
         style="stroke-width:1.32292"
         x="106.56823"
         y="185.21739">简介</tspan></text>
    <path
       id="path19"
       style="fill:#2f3ad7;fill-opacity:0.987532;stroke-width:1.32292;stroke-linecap:round;stroke-linejoin:round"
       d="m 103.90372,220.39582 c -6.989603,0 -13.285693,2.84489 -17.813901,7.43831 -9.779014,9.64028 -25.503092,9.5886 -35.218522,-0.11576 l -5.17e-4,-5.1e-4 c -9.763122,-9.76319 -25.592342,-9.76319 -35.355464,0 -9.7631876,9.76312 -9.7631876,25.59234 0,35.35546 9.763122,9.76319 25.592342,9.76319 35.355464,0 9.71535,-9.70484 25.439824,-9.75675 35.219039,-0.11627 4.528208,4.59343 10.824288,7.43882 17.813901,7.43882 h 227.0001 c 13.84999,0 25.00002,-11.15004 25.00002,-25.00002 0,-13.84999 -11.15003,-25.00003 -25.00002,-25.00003 z"
       sodipodi:nodetypes="scssccccsssss" />
    <circle
       style="fill:none;fill-opacity:0.820974;stroke:#fffcfc;stroke-width:1;stroke-linecap:round;stroke-linejoin:round;stroke-dasharray:3, 3;stroke-dashoffset:0;stroke-opacity:1"
       id="circle19"
       cx="33.192924"
       cy="245.39568"
       r="25" />
    <text
       xml:space="preserve"
       style="font-weight:bold;font-size:35.2778px;font-family:P052;-inkscape-font-specification:'P052 Bold';fill:#b7b9de;fill-opacity:0.999927;stroke-width:0.992081;stroke-linecap:round;stroke-linejoin:round"
       x="24.549862"
       y="257.16083"
       id="text19"><tspan
         sodipodi:role="line"
         id="tspan19"
         style="font-size:35.2778px;fill:#b7b9de;fill-opacity:0.999927;stroke-width:0.992081"
         x="24.549862"
         y="257.16083">1</tspan></text>
    <text
       xml:space="preserve"
       style="font-weight:bold;font-size:22.5778px;font-family:P052;-inkscape-font-specification:'P052 Bold';fill:#b7b9de;fill-opacity:1;stroke-width:1.32292;stroke-linecap:round;stroke-linejoin:round"
       x="106.56823"
       y="254.00911"
       id="text20"><tspan
         sodipodi:role="line"
         id="tspan20"
         style="fill:#b7b9de;fill-opacity:1;stroke-width:1.32292"
         x="106.56823"
         y="254.00911">简介</tspan></text>
  </g>
</svg>
